<?xml version="1.0" encoding="UTF-8"?>
<!DOCTYPE svg PUBLIC "-//W3C//DTD SVG 1.1//EN"
    "http://www.w3.org/Graphics/SVG/1.1/DTD/svg11.dtd">
<svg xmlns="http://www.w3.org/2000/svg" xmlns:xlink="http://www.w3.org/1999/xlink" version="1.1" width="88.630196mm" height="123.825mm" viewBox="0.0 0.0 88.630196 123.825"><g stroke="rgb(0,0,255)" stroke-width="1" fill="none"><polyline points="2.9764683e1,1.2324327e2 2.9825817e1,1.2339386e2 2.9941849e1,1.2369085e2 3.0231104e1,1.23825e2 8.826137e1,1.23825e2 8.8630196e1,1.2362048e2 5.1044773e1,4.8449646e1 5.0763012e1,4.7874847e1 5.0657913e1,4.7675926e1 5.063245e1,4.74524e1 5.063245e1,2.4220276e-1 5.0394512e1,0.0e0 1.1231277e1,7.6293945e-6 1.0944951e1,2.2040558e-1 1.0944951e1,4.74524e1 1.0950762e1,4.7625e1 1.0882638e1,4.763836e1 9.885629e0,4.7625e1 8.456175e-2,4.7625008e1 0.0e0,4.8048294e1 2.9764683e1,1.2324327e2 " /><polyline points="2.484077e1,1.0857697e1 2.4553026e1,1.0736557e1 2.4299606e1,1.05542145e1 2.4111366e1,1.0345169e1 2.3969116e1,1.0102478e1 2.3878674e1,9.836105e0 2.3843761e1,9.556976e0 2.3843756e1,9.556961e0 2.3843761e1,9.494621e0 2.3950397e1,8.990356e0 2.4233595e1,8.559715e0 2.4513323e1,8.336578e0 2.484077e1,8.1923065e0 2.5346958e1,8.140663e0 2.583778e1,8.274773e0 2.6231302e1,8.559715e0 2.6401543e1,8.774857e0 2.6526175e1,9.019264e0 2.6600342e1,9.2834015e0 2.6621145e1,9.556961e0 2.658623e1,9.83609e0 2.6495787e1,1.010247e1 2.6353533e1,1.0345161e1 2.6165289e1,1.05542145e1 2.583778e1,1.077523e1 2.5346958e1,1.090934e1 2.484077e1,1.0857697e1 " /><polyline points="3.4810863e1,1.091304e1 3.4542683e1,1.0897369e1 3.4282536e1,1.083036e1 3.4040157e1,1.0714523e1 3.3824596e1,1.05542145e1 3.3813854e1,1.0544373e1 3.3629944e1,1.0336319e1 3.34911e1,1.009584e1 3.3402863e1,9.832542e0 3.3368755e1,9.556961e0 3.338956e1,9.2834015e0 3.346373e1,9.019264e0 3.3588356e1,8.774857e0 3.3758595e1,8.559715e0 3.3813854e1,8.5056305e0 3.403082e1,8.341148e0 3.4275696e1,8.222153e0 3.453909e1,8.1532135e0 3.4810863e1,8.136963e0 3.5073402e1,8.172348e0 3.5324455e1,8.256935e0 3.5554882e1,8.387642e0 3.575631e1,8.559715e0 3.5807873e1,8.6160965e0 3.6064598e1,9.055038e0 3.6146145e1,9.556961e0 3.605344e1,1.0024918e1 3.5807873e1,1.0433907e1 3.5690304e1,1.05542145e1 3.5282207e1,1.0811134e1 3.4810863e1,1.091304e1 " /></g></svg>