<?xml version="1.0" encoding="UTF-8"?>
<!DOCTYPE svg PUBLIC "-//W3C//DTD SVG 1.1//EN"
    "http://www.w3.org/Graphics/SVG/1.1/DTD/svg11.dtd">
<svg xmlns="http://www.w3.org/2000/svg" xmlns:xlink="http://www.w3.org/1999/xlink" version="1.1" width="92.42013mm" height="123.825005mm" viewBox="0.0 0.0 92.42013 123.825005"><g stroke="rgb(0,0,255)" stroke-width="1" fill="none"><polyline points="2.9864862e1,1.2324328e2 3.008393e1,1.23796715e2 3.0678473e1,1.23825005e2 8.830054e1,1.23825005e2 8.8756775e1,1.2367332e2 5.0780827e1,4.7721397e1 5.0732628e1,4.7452408e1 5.0732628e1,5.8174133e-1 5.0732624e1,1.5546417e-1 5.067577e1,2.3094177e-2 4.9675907e1,7.6293945e-6 1.1097009e1,1.5258789e-5 1.1045129e1,2.885666e-1 1.1045129e1,4.6455154e1 1.1042078e1,4.7452408e1 1.104513e1,4.7597282e1 1.0902897e1,4.7625e1 1.682391e0,4.7625008e1 6.8252647e-1,4.762336e1 3.2003915e-1,4.7625008e1 0.0e0,4.7795227e1 2.9864862e1,1.2324328e2 " /><polyline points="7.484077e1,7.238361e1 7.567239e1,7.260318e1 7.667226e1,7.280473e1 7.767212e1,7.294054e1 7.867198e1,7.3012276e1 7.930762e1,7.3019295e1 7.9307625e1,7.238361e1 7.9307625e1,5.8422134e1 7.931571e1,5.742489e1 7.9307625e1,5.6427643e1 7.9307625e1,4.9282112e1 7.9406815e1,4.9150513e1 8.531498e1,4.545791e1 8.5671036e1,4.524375e1 9.0670364e1,4.524375e1 9.167023e1,4.5240105e1 9.199098e1,4.524375e1 9.200763e1,4.492341e1 9.200762e1,4.4460663e1 9.200762e1,3.6482674e1 9.200543e1,3.571473e1 8.725093e1,2.6998146e1 8.6670906e1,2.698751e1 7.939638e1,2.698751e1 7.916234e1,2.7132797e1 7.0673065e1,3.5622025e1 7.043488e1,3.571875e1 6.4673874e1,3.5718758e1 6.3674015e1,3.5730507e1 6.3432625e1,3.5812813e1 6.343263e1,3.6482674e1 6.343263e1,5.6427643e1 6.343501e1,5.742489e1 6.348368e1,5.8422134e1 6.3595673e1,5.9419388e1 6.3674015e1,5.990786e1 6.3772354e1,6.0416634e1 6.401596e1,6.141388e1 6.432977e1,6.2411133e1 6.4673874e1,6.330378e1 6.47183e1,6.340838e1 6.518772e1,6.4405624e1 6.5673744e1,6.528222e1 6.574644e1,6.540288e1 6.640604e1,6.640012e1 6.667361e1,6.676235e1 6.7182976e1,6.739737e1 6.767347e1,6.795103e1 6.810164e1,6.839462e1 6.867334e1,6.893676e1 6.920058e1,6.939187e1 6.96732e1,6.97672e1 7.054739e1,7.0389114e1 7.0673065e1,7.047142e1 7.167293e1,7.106859e1 7.2283264e1,7.138637e1 7.26728e1,7.157202e1 7.367266e1,7.199126e1 7.467252e1,7.233327e1 7.484077e1,7.238361e1 " /><polyline points="7.867198e1,3.759857e1 7.839341e1,3.7479927e1 7.799351e1,3.7205643e1 7.767212e1,3.6842506e1 7.747618e1,3.6482674e1 7.734229e1,3.599302e1 7.733701e1,3.5485428e1 7.745041e1,3.501982e1 7.767212e1,3.4594986e1 7.7750885e1,3.4488182e1 7.8164375e1,3.40968e1 7.867198e1,3.3838943e1 7.9167366e1,3.373935e1 7.967185e1,3.3768097e1 8.020855e1,3.3950676e1 8.0671715e1,3.427758e1 8.0864365e1,3.4488182e1 8.114043e1,3.4958122e1 8.127824e1,3.5485428e1 8.127296e1,3.599302e1 8.113907e1,3.6482674e1 8.094088e1,3.6845795e1 8.0671715e1,3.7159935e1 8.022191e1,3.7479927e1 7.967185e1,3.766942e1 7.9167366e1,3.7698166e1 7.867198e1,3.759857e1 " /><polyline points="5.2732628e1,1.8532204e1 5.2732624e1,1.889573e1 5.30618e1,1.9050003e1 9.2223946e1,1.905001e1 9.242013e1,1.882827e1 9.242013e1,2.7170563e-1 9.2270805e1,7.6293945e-6 5.302451e1,0.0e0 5.2732628e1,2.1764374e-1 5.2732628e1,1.8532204e1 " /><polyline points="2.4679285e1,1.0750832e1 2.439979e1,1.0554222e1 2.4211546e1,1.0345169e1 2.4069292e1,1.0102478e1 2.397885e1,9.836098e0 2.3943933e1,9.556969e0 2.3964737e1,9.283409e0 2.4038904e1,9.019272e0 2.4163536e1,8.774864e0 2.4333776e1,8.559723e0 2.4679285e1,8.299187e0 2.5168024e1,8.145737e0 2.5679148e1,8.179863e0 2.603161e1,8.324631e0 2.6331484e1,8.559723e0 2.6551065e1,8.858002e0 2.6679014e1,9.205574e0 2.6721323e1,9.556969e0 2.6679014e1,9.842461e0 2.6528788e1,1.0231194e1 2.6265474e1,1.0554222e1 2.599153e1,1.0747856e1 2.5679148e1,1.0870155e1 2.5168024e1,1.0904282e1 2.4679285e1,1.0750832e1 " /><polyline points="3.467793e1,1.0902397e1 3.4274746e1,1.0785851e1 3.3924774e1,1.0554222e1 3.3678066e1,1.0268997e1 3.352782e1,9.926399e0 3.3468933e1,9.556969e0 3.3519085e1,9.153801e0 3.3678066e1,8.779938e0 3.385877e1,8.559723e0 3.423336e1,8.284134e0 3.467793e1,8.147621e0 3.494176e1,8.138496e0 3.5202557e1,8.179459e0 3.545089e1,8.269012e0 3.56778e1,8.403931e0 3.585648e1,8.559723e0 3.6026722e1,8.774864e0 3.615135e1,9.019272e0 3.6225517e1,9.283409e0 3.6246323e1,9.556969e0 3.6211407e1,9.836098e0 3.612096e1,1.0102478e1 3.597871e1,1.0345169e1 3.579047e1,1.0554222e1 3.56778e1,1.0646088e1 3.545089e1,1.0781006e1 3.5202557e1,1.087056e1 3.494176e1,1.0911522e1 3.467793e1,1.0902397e1 " /><polyline points="6.867334e1,1.0912514e1 6.8401985e1,1.0898758e1 6.8138504e1,1.0832443e1 6.789297e1,1.07161255e1 6.7674774e1,1.0554222e1 6.767347e1,1.0553032e1 6.7485756e1,1.0344093e1 6.734392e1,1.0101677e1 6.725375e1,9.83567e0 6.721893e1,9.556969e0 6.723972e1,9.283409e0 6.7313896e1,9.019272e0 6.743852e1,8.774864e0 6.7608765e1,8.559723e0 6.767347e1,8.496971e0 6.789183e1,8.334564e0 6.813767e1,8.21785e0 6.840156e1,8.151314e0 6.867334e1,8.137497e0 6.918025e1,8.25946e0 6.960648e1,8.559723e0 6.96732e1,8.633919e0 6.9918686e1,9.066063e0 6.9996315e1,9.556969e0 6.990777e1,1.0013992e1 6.96732e1,1.0416092e1 6.9540474e1,1.0554222e1 6.913808e1,1.08088e1 6.867334e1,1.0912514e1 " /><polyline points="7.767212e1,1.083551e1 7.742189e1,1.0718468e1 7.719979e1,1.0554222e1 7.701154e1,1.0345169e1 7.686929e1,1.0102478e1 7.6778854e1,9.836098e0 7.674393e1,9.556969e0 7.676473e1,9.283409e0 7.6838905e1,9.019272e0 7.696353e1,8.774864e0 7.7133766e1,8.559723e0 7.7382805e1,8.355698e0 7.767212e1,8.214493e0 7.817489e1,8.136581e0 7.867198e1,8.244934e0 7.891767e1,8.379059e0 7.9131485e1,8.559723e0 7.930172e1,8.774872e0 7.942635e1,9.019272e0 7.950052e1,9.283409e0 7.952132e1,9.556969e0 7.9486404e1,9.836098e0 7.939596e1,1.0102478e1 7.92537e1,1.0345169e1 7.906546e1,1.0554222e1 7.867198e1,1.0805077e1 7.817489e1,1.0913414e1 7.767212e1,1.083551e1 " /></g></svg>