<?xml version="1.0" encoding="UTF-8"?>
<!DOCTYPE svg PUBLIC "-//W3C//DTD SVG 1.1//EN"
    "http://www.w3.org/Graphics/SVG/1.1/DTD/svg11.dtd">
<svg xmlns="http://www.w3.org/2000/svg" xmlns:xlink="http://www.w3.org/1999/xlink" version="1.1" width="152.39891mm" height="152.41891mm" viewBox="0.0 0.0 152.39891 152.41891"><g stroke="rgb(0,0,255)" stroke-width="1" fill="none"><polyline points="5.820356e0,1.5165019e2 6.7444916e0,1.5200089e2 7.7438354e0,1.5220547e2 8.743179e0,1.5238155e2 9.742523e0,1.523997e2 1.22668434e2,1.523997e2 1.2366778e2,1.5241891e2 1.2382391e2,1.5226775e2 1.2382391e2,1.33662e2 1.23823906e2,1.3345705e2 1.2378067e2,1.333497e2 1.2366778e2,1.3332426e2 1.22668434e2,1.333497e2 9.742523e0,1.333497e2 8.743179e0,1.3338176e2 7.7438354e0,1.3351752e2 7.1048937e0,1.33662e2 6.7444916e0,1.3376425e2 5.7451477e0,1.3413133e2 4.745802e0,1.3463484e2 4.700401e0,1.3466135e2 3.746458e0,1.3530196e2 3.3043056e0,1.3566069e2 2.7471142e0,1.3618138e2 2.3056438e0,1.3666003e2 1.7477702e0,1.3737405e2 1.5535985e0,1.3765938e2 9.82774e-1,1.3865872e2 7.484254e-1,1.3917114e2 5.6619304e-1,1.3965807e2 2.5771385e-1,1.4065741e2 4.611582e-2,1.4165675e2 2.8436177e-4,1.426561e2 1.7078817e-2,1.4365544e2 1.9314912e-1,1.4465479e2 3.977409e-1,1.4565413e2 7.484254e-1,1.4657826e2 7.805457e-1,1.4665347e2 1.2840592e0,1.4765282e2 1.7477702e0,1.4837535e2 1.9511641e0,1.4865216e2 2.7471142e0,1.4956802e2 2.8305945e0,1.496515e2 3.746458e0,1.5044746e2 4.023265e0,1.5065085e2 4.745802e0,1.5111456e2 5.7451477e0,1.5161807e2 5.820356e0,1.5165019e2 " /><polyline points="1.3917035e2,1.5165019e2 1.3965727e2,1.5183243e2 1.4065662e2,1.5214091e2 1.4165596e2,1.5235251e2 1.426553e2,1.5239833e2 1.4365465e2,1.5238155e2 1.4465399e2,1.5220547e2 1.4565334e2,1.5200089e2 1.4657747e2,1.5165019e2 1.4665268e2,1.5161807e2 1.4765202e2,1.5111456e2 1.4837456e2,1.5065085e2 1.4865137e2,1.5044746e2 1.4956723e2,1.496515e2 1.4965073e2,1.4956801e2 1.5044666e2,1.4865216e2 1.5065007e2,1.4837534e2 1.5111377e2,1.4765282e2 1.5161728e2,1.4665347e2 1.5164941e2,1.4657823e2 1.5200008e2,1.4565413e2 1.5220467e2,1.4465479e2 1.5238075e2,1.4365544e2 1.5239891e2,1.426561e2 1.5239891e2,2.9730186e1 1.5237968e2,2.8730843e1 1.5224043e2,2.8574715e1 1.3345625e2,2.8574707e1 1.3334889e2,2.8617928e1 1.3332347e2,2.8730843e1 1.333489e2,2.9730186e1 1.333489e2,1.426561e2 1.3338097e2,1.4365544e2 1.3351672e2,1.4465479e2 1.3366121e2,1.4529375e2 1.3376346e2,1.4565413e2 1.3413054e2,1.4665347e2 1.3463405e2,1.4765282e2 1.3466055e2,1.4769823e2 1.3530116e2,1.4865216e2 1.356599e2,1.4909431e2 1.3618059e2,1.496515e2 1.3665924e2,1.5009299e2 1.3737326e2,1.5065085e2 1.3765858e2,1.5084503e2 1.3865793e2,1.5141585e2 1.3917035e2,1.5165019e2 " /><polyline points="1.573859e1,1.4485446e2 1.5358029e1,1.4479085e2 1.4996974e1,1.4465479e2 1.4739246e1,1.4450267e2 1.4334965e1,1.4412746e2 1.4049583e1,1.4365544e2 1.391094e1,1.4316534e2 1.390162e1,1.426561e2 1.4035254e1,1.4212834e2 1.4307284e1,1.4165675e2 1.4739246e1,1.4124673e2 1.5215007e1,1.4100291e2 1.573859e1,1.4089494e2 1.6250872e1,1.4092647e2 1.6737934e1,1.410883e2 1.7122034e1,1.41332e2 1.744055e1,1.4165675e2 1.773728e1,1.4217445e2 1.7846214e1,1.426561e2 1.7843653e1,1.431153e2 1.773728e1,1.4356203e2 1.769825e1,1.4365544e2 1.7532091e1,1.4396475e2 1.731402e1,1.4423993e2 1.7050865e1,1.4447237e2 1.6750856e1,1.4465479e2 1.6737934e1,1.446611e2 1.6250872e1,1.4482295e2 1.573859e1,1.4485446e2 " /><polyline points="2.4732687e1,1.447439e2 2.4522123e1,1.4465479e2 2.408021e1,1.4435753e2 2.3733343e1,1.4395337e2 2.3574583e1,1.4365544e2 2.343594e1,1.4316534e2 2.3426619e1,1.426561e2 2.3529835e1,1.4220816e2 2.3733343e1,1.4179599e2 2.3832283e1,1.4165675e2 2.423597e1,1.4126682e2 2.4732687e1,1.4100551e2 2.5226768e1,1.4089781e2 2.573203e1,1.4091849e2 2.6266397e1,1.4108998e2 2.6731379e1,1.4140424e2 2.696555e1,1.4165675e2 2.7237577e1,1.4212834e2 2.7371214e1,1.426561e2 2.7361893e1,1.4316534e2 2.722325e1,1.4365544e2 2.7014551e1,1.4402687e2 2.6731379e1,1.4434518e2 2.6275787e1,1.4465479e2 2.573203e1,1.4483092e2 2.5226768e1,1.448516e2 2.4732687e1,1.447439e2 " /><polyline points="6.1708427e1,1.4484866e2 6.1362823e1,1.4478174e2 6.1034492e1,1.4465479e2 6.0709084e1,1.4445335e2 6.034638e1,1.4409471e2 6.0087082e1,1.4365544e2 5.9948437e1,1.4316534e2 5.9939117e1,1.426561e2 6.0072754e1,1.4212834e2 6.0344784e1,1.4165675e2 6.0709084e1,1.4129605e2 6.1181484e1,1.4102945e2 6.1708427e1,1.4090074e2 6.221823e1,1.4091418e2 6.270777e1,1.4105713e2 6.3130356e1,1.4130884e2 6.3478046e1,1.4165675e2 6.3707115e1,1.4204189e2 6.3822712e1,1.4234114e2 6.3883713e1,1.426561e2 6.3874393e1,1.4316534e2 6.373575e1,1.4365544e2 6.3707115e1,1.4371913e2 6.3540234e1,1.4400815e2 6.332725e1,1.4426508e2 6.3074223e1,1.444827e2 6.278828e1,1.4465479e2 6.270777e1,1.4469228e2 6.221823e1,1.4483522e2 6.1708427e1,1.4484866e2 " /><polyline points="9.768482e1,1.4471631e2 9.754709e1,1.4465479e2 9.7052986e1,1.4430939e2 9.668548e1,1.4383148e2 9.659958e1,1.4365544e2 9.6460945e1,1.4316534e2 9.6451614e1,1.426561e2 9.653218e1,1.4227545e2 9.668548e1,1.4191785e2 9.685728e1,1.4165675e2 9.722962e1,1.4128996e2 9.768482e1,1.4103311e2 9.817639e1,1.4090582e2 9.8684166e1,1.4090747e2 9.9214195e1,1.4105449e2 9.968351e1,1.4134135e2 9.999055e1,1.4165675e2 1.0026257e2,1.4212834e2 1.0039621e2,1.426561e2 1.0038688e2,1.4316534e2 1.00248245e2,1.4365544e2 1.0001113e2,1.440657e2 9.968351e1,1.4440805e2 9.930082e1,1.4465479e2 9.9000145e1,1.4477357e2 9.8684166e1,1.4484193e2 9.817639e1,1.4484358e2 9.768482e1,1.4471631e2 " /><polyline points="1.0767827e2,1.4484053e2 1.0736767e2,1.4477205e2 1.07072014e2,1.4465479e2 1.06678925e2,1.4439946e2 1.0635766e2,1.440603e2 1.0612458e2,1.4365544e2 1.0598595e2,1.4316534e2 1.05976616e2,1.426561e2 1.0611025e2,1.4212834e2 1.0638228e2,1.4165675e2 1.06678925e2,1.4134995e2 1.07147644e2,1.410593e2 1.0767827e2,1.4090887e2 1.08185684e2,1.4090451e2 1.0867761e2,1.4102896e2 1.0913873e2,1.4128659e2 1.0951555e2,1.4165675e2 1.09676956e2,1.418992e2 1.098374e2,1.4226529e2 1.0992121e2,1.426561e2 1.0991188e2,1.4316534e2 1.0977325e2,1.4365544e2 1.09676956e2,1.4385013e2 1.093121e2,1.4431674e2 1.0882573e2,1.4465479e2 1.0867761e2,1.4472044e2 1.08185684e2,1.4484491e2 1.0767827e2,1.4484053e2 " /><polyline points="1.4165596e2,1.3809134e2 1.4124594e2,1.3765938e2 1.4100212e2,1.3718361e2 1.4089415e2,1.3666003e2 1.4092566e2,1.3614775e2 1.4108751e2,1.3566069e2 1.4133119e2,1.3527658e2 1.4165596e2,1.3495807e2 1.4217366e2,1.3466135e2 1.426553e2,1.345524e2 1.431145e2,1.3455496e2 1.4356123e2,1.3466135e2 1.4365465e2,1.3470038e2 1.4396394e2,1.3486652e2 1.4423914e2,1.350846e2 1.4447156e2,1.3534776e2 1.4465399e2,1.3564777e2 1.4466031e2,1.3566069e2 1.4482216e2,1.3614775e2 1.4485367e2,1.3666003e2 1.4479005e2,1.3704059e2 1.4465399e2,1.3740164e2 1.4450188e2,1.3765938e2 1.4412665e2,1.3806366e2 1.4365465e2,1.3834903e2 1.4316455e2,1.3848767e2 1.426553e2,1.38497e2 1.4212753e2,1.3836337e2 1.4165596e2,1.3809134e2 " /><polyline points="1.426553e2,1.28972e2 1.4220738e2,1.2886879e2 1.4179521e2,1.2866528e2 1.4165596e2,1.2856635e2 1.4126602e2,1.2816266e2 1.4100471e2,1.2766594e2 1.4089702e2,1.2717185e2 1.409177e2,1.26666595e2 1.4108919e2,1.26132225e2 1.4140344e2,1.25667244e2 1.4165596e2,1.25433075e2 1.4212753e2,1.2516104e2 1.426553e2,1.25027405e2 1.4316455e2,1.2503673e2 1.4365465e2,1.2517537e2 1.4402608e2,1.2538408e2 1.4434439e2,1.25667244e2 1.4465399e2,1.2612283e2 1.4483012e2,1.26666595e2 1.448508e2,1.2717185e2 1.447431e2,1.2766594e2 1.4465399e2,1.27876495e2 1.4435674e2,1.2831842e2 1.4395258e2,1.2866528e2 1.4365465e2,1.2882404e2 1.4316455e2,1.2896268e2 1.426553e2,1.28972e2 " /><polyline points="7.0269527e0,1.26666595e2 7.7438354e0,1.26831894e2 8.743179e0,1.2696765e2 9.742523e0,1.269997e2 1.23797e2,1.2699971e2 1.2382391e2,1.2687305e2 1.2382391e2,1.0809298e2 1.2366778e2,1.07956314e2 1.22668434e2,1.0794971e2 9.742523e0,1.0794971e2 8.743179e0,1.07969315e2 7.7438354e0,1.0814878e2 6.7444916e0,1.0835003e2 5.8700786e0,1.0867839e2 5.7451477e0,1.0873134e2 4.745802e0,1.0923485e2 4.0528164e0,1.09677734e2 3.746458e0,1.0990195e2 2.8517401e0,1.1067708e2 2.7471142e0,1.1078139e2 1.9670926e0,1.1167642e2 1.7477702e0,1.1197405e2 1.296168e0,1.12675766e2 7.8957486e-1,1.1367511e2 7.484254e-1,1.1377114e2 4.355697e-1,1.1467445e2 2.8288904e-1,1.1516623e2 1.9612223e-1,1.156738e2 1.8107224e-2,1.1667314e2 3.5877805e-5,1.1767249e2 4.4342205e-2,1.1867184e2 2.5591052e-1,1.1967118e2 5.620101e-1,1.20670525e2 7.484254e-1,1.2117827e2 9.7252965e-1,1.2166987e2 1.5400127e0,1.2266921e2 1.7477702e0,1.2297536e2 2.2877693e0,1.2366856e2 2.7471142e0,1.2416803e2 3.280235e0,1.246679e2 3.746458e0,1.25047455e2 4.6651177e0,1.25667244e2 4.745802e0,1.2571456e2 5.7451477e0,1.2621808e2 6.7444916e0,1.2658516e2 7.0269527e0,1.26666595e2 " /><polyline points="1.4739246e1,1.1910267e2 1.4291318e1,1.1867184e2 1.4026512e1,1.1819917e2 1.3899424e1,1.1767249e2 1.3914256e1,1.17162506e2 1.4058635e1,1.1667314e2 1.4342158e1,1.1621318e2 1.4739246e1,1.1584674e2 1.50463295e1,1.156738e2 1.5384031e1,1.1555175e2 1.573859e1,1.1549495e2 1.623421e1,1.1552331e2 1.6707277e1,1.156738e2 1.6737934e1,1.1568831e2 1.7037567e1,1.15867325e2 1.7301197e1,1.16096085e2 1.7520674e1,1.16367485e2 1.7689198e1,1.1667314e2 1.773728e1,1.1679778e2 1.784299e1,1.1722877e2 1.784841e1,1.1767249e2 1.773728e1,1.1816534e2 1.7456516e1,1.1867184e2 1.7132208e1,1.19009125e2 1.6737934e1,1.192611e2 1.625087e1,1.1942294e2 1.573859e1,1.1945446e2 1.5215007e1,1.193465e2 1.4739246e1,1.1910267e2 " /><polyline points="2.4732687e1,1.193439e2 2.4225363e1,1.1907487e2 2.3816317e1,1.1867184e2 2.3733343e1,1.1855341e2 2.3526344e1,1.1813138e2 2.3424423e1,1.1767249e2 2.3439255e1,1.17162506e2 2.3583635e1,1.1667314e2 2.3733343e1,1.16396034e2 2.4098372e1,1.1597594e2 2.4565758e1,1.156738e2 2.4732687e1,1.15605515e2 2.5226768e1,1.154978e2 2.573203e1,1.1551849e2 2.622315e1,1.156738e2 2.649101e1,1.1581788e2 2.6731379e1,1.16004234e2 2.7007935e1,1.16313324e2 2.7214197e1,1.1667314e2 2.7358578e1,1.17162506e2 2.737341e1,1.1767249e2 2.7246319e1,1.1819917e2 2.6981514e1,1.1867184e2 2.6731379e1,1.18945175e2 2.6266397e1,1.1925943e2 2.573203e1,1.1943092e2 2.5226768e1,1.194516e2 2.4732687e1,1.193439e2 " /><polyline points="6.0709084e1,1.1905336e2 6.0328815e1,1.1867184e2 6.006401e1,1.18199165e2 5.993692e1,1.1767249e2 5.9951756e1,1.17162506e2 6.0096134e1,1.1667314e2 6.035338e1,1.16245766e2 6.0709084e1,1.1589606e2 6.109332e1,1.156738e2 6.1392986e1,1.1555925e2 6.1708427e1,1.1550074e2 6.221823e1,1.1551419e2 6.270777e1,1.15657135e2 6.2744713e1,1.156738e2 6.3044674e1,1.15845764e2 6.3310223e1,1.160672e2 6.35333e1,1.1633136e2 6.3707115e1,1.1663026e2 6.3726696e1,1.1667314e2 6.3871075e1,1.17162506e2 6.388591e1,1.1767249e2 6.38224e1,1.18009384e2 6.3707115e1,1.18332245e2 6.3494015e1,1.1867184e2 6.314068e1,1.1903247e2 6.270777e1,1.19292274e2 6.221823e1,1.1943522e2 6.1708427e1,1.1944867e2 6.1181484e1,1.1931996e2 6.0709084e1,1.1905336e2 " /><polyline points="9.768482e1,1.193163e2 9.721918e1,1.1905152e2 9.684132e1,1.1867184e2 9.668548e1,1.18431564e2 9.6529045e1,1.1806397e2 9.644942e1,1.1767249e2 9.646426e1,1.17162506e2 9.660863e1,1.1667314e2 9.668548e1,1.16517914e2 9.707056e1,1.16023445e2 9.759069e1,1.156738e2 9.768482e1,1.156331e2 9.817639e1,1.1550583e2 9.8684166e1,1.1550747e2 9.9260635e1,1.156738e2 9.968351e1,1.1594136e2 1.00004295e2,1.1627464e2 1.002392e2,1.1667314e2 1.0038357e2,1.17162506e2 1.0039841e2,1.1767249e2 1.0027132e2,1.1819917e2 1.0000651e2,1.1867184e2 9.968351e1,1.1900806e2 9.9214195e1,1.1929492e2 9.8684166e1,1.1944194e2 9.817639e1,1.1944359e2 9.768482e1,1.193163e2 " /><polyline points="1.06678925e2,1.1899946e2 1.0636632e2,1.1867184e2 1.061015e2,1.1819917e2 1.0597442e2,1.1767249e2 1.0598926e2,1.17162506e2 1.0613363e2,1.1667314e2 1.0636446e2,1.16280014e2 1.06678925e2,1.1594995e2 1.0710858e2,1.156738e2 1.0767827e2,1.1550887e2 1.08185684e2,1.155045e2 1.0867761e2,1.1562897e2 1.0878213e2,1.156738e2 1.0929444e2,1.1601618e2 1.09676956e2,1.1649927e2 1.097642e2,1.1667314e2 1.0990857e2,1.17162506e2 1.0992341e2,1.1767249e2 1.0984059e2,1.1807415e2 1.09676956e2,1.1845021e2 1.0953151e2,1.1867184e2 1.091492e2,1.1905491e2 1.0867761e2,1.1932044e2 1.08185684e2,1.194449e2 1.0767827e2,1.1944054e2 1.0714765e2,1.19290115e2 1.06678925e2,1.1899946e2 " /><polyline points="5.448143e0,1.0068364e2 5.7451477e0,1.0083273e2 6.7444916e0,1.01162445e2 7.7438354e0,1.014496e2 8.743179e0,1.01593506e2 9.742523e0,1.015997e2 1.2366778e2,1.0159608e2 1.2382392e2,1.01402176e2 1.2382391e2,1.0068364e2 1.2382391e2,8.2695435e1 1.23813866e2,8.2549706e1 9.742523e0,8.2549706e1 8.743179e0,8.258176e1 7.86413e0,8.2695435e1 7.7438354e0,8.271752e1 6.7444916e0,8.297171e1 6.2356997e0,8.3135284e1 5.7451477e0,8.3347374e1 4.9959526e0,8.369478e1 4.745802e0,8.383485e1 3.746458e0,8.450195e1 3.5029023e0,8.469412e1 2.7471142e0,8.5381386e1 2.4524596e0,8.5693474e1 1.7477702e0,8.657405e1 1.6651063e0,8.669282e1 1.0670297e0,8.769216e1 7.484254e-1,8.837114e1 6.2687486e-1,8.869151e1 3.1331247e-1,8.969086e1 6.196478e-2,9.06902e1 3.1904224e-3,9.1689545e1 9.965168e-3,9.268889e1 6.476336e-2,9.3192764e1 1.716305e-1,9.368823e1 2.3796214e-1,9.4195244e1 3.760833e-1,9.468758e1 7.0991033e-1,9.568692e1 7.484254e-1,9.577827e1 1.1896986e0,9.6686264e1 1.7477702e0,9.757536e1 1.8269408e0,9.768561e1 2.666051e0,9.868495e1 2.7471142e0,9.876803e1 3.746458e0,9.964746e1 3.7950594e0,9.9684296e1 4.745802e0,1.0031456e2 5.448143e0,1.0068364e2 " /><polyline points="1.4739246e1,9.370267e1 1.4718807e1,9.368823e1 1.4272921e1,9.324712e1 1.398698e1,9.268889e1 1.3893072e1,9.219304e1 1.392728e1,9.1689545e1 1.4117247e1,9.115175e1 1.4452341e1,9.06902e1 1.4739246e1,9.044674e1 1.5215008e1,9.020292e1 1.573859e1,9.0094955e1 1.6250872e1,9.0126465e1 1.6737934e1,9.028831e1 1.7034245e1,9.046493e1 1.7295492e1,9.06902e1 1.7553923e1,9.1018616e1 1.773728e1,9.139415e1 1.7820553e1,9.1689545e1 1.7854761e1,9.219304e1 1.7760853e1,9.268889e1 1.773728e1,9.27334e1 1.7622463e1,9.3012955e1 1.7459703e1,9.326761e1 1.7029009e1,9.368823e1 1.6737934e1,9.38611e1 1.6250872e1,9.402295e1 1.573859e1,9.405446e1 1.5215005e1,9.3946495e1 1.4739246e1,9.370267e1 " /><polyline points="2.4732687e1,9.394389e1 2.4243814e1,9.368823e1 2.3963444e1,9.344479e1 2.3733343e1,9.315339e1 2.351198e1,9.268889e1 2.3418072e1,9.219304e1 2.345228e1,9.1689545e1 2.355982e1,9.132941e1 2.3733343e1,9.0996e1 2.3977339e1,9.06902e1 2.4327251e1,9.040459e1 2.4732687e1,9.020551e1 2.5226768e1,9.009781e1 2.573203e1,9.0118484e1 2.6266396e1,9.0289986e1 2.6731379e1,9.060423e1 2.6820492e1,9.06902e1 2.7155586e1,9.115175e1 2.7345552e1,9.1689545e1 2.737976e1,9.219304e1 2.7285852e1,9.268889e1 2.706458e1,9.3153275e1 2.6731379e1,9.354518e1 2.655403e1,9.368823e1 2.6162504e1,9.390628e1 2.573203e1,9.403092e1 2.5226768e1,9.4051605e1 2.4732687e1,9.394389e1 " /><polyline points="6.1708427e1,9.4048676e1 6.1208855e1,9.393056e1 6.07563e1,9.368823e1 6.0709084e1,9.365336e1 6.0293255e1,9.322331e1 6.002448e1,9.268889e1 5.9930573e1,9.219304e1 5.996478e1,9.1689545e1 6.0154743e1,9.115174e1 6.048984e1,9.06902e1 6.0709084e1,9.049605e1 6.1181484e1,9.0229454e1 6.1708427e1,9.010074e1 6.221823e1,9.01142e1 6.270777e1,9.025713e1 6.304132e1,9.0443436e1 6.3332993e1,9.06902e1 6.3540928e1,9.094226e1 6.3707115e1,9.122361e1 6.385805e1,9.1689545e1 6.3892258e1,9.219304e1 6.379835e1,9.268889e1 6.3707115e1,9.291901e1 6.3436157e1,9.334471e1 6.306651e1,9.368823e1 6.270777e1,9.389227e1 6.221823e1,9.403522e1 6.1708427e1,9.4048676e1 " /><polyline points="9.768482e1,9.3916306e1 9.7268814e1,9.368823e1 9.694033e1,9.339255e1 9.668548e1,9.303148e1 9.653698e1,9.268889e1 9.644307e1,9.219304e1 9.647727e1,9.1689545e1 9.668548e1,9.1117874e1 9.7002335e1,9.06902e1 9.731967e1,9.042595e1 9.768482e1,9.023311e1 9.817639e1,9.010583e1 9.8684166e1,9.010747e1 9.9214195e1,9.0254486e1 9.968351e1,9.054136e1 9.984549e1,9.06902e1 1.0018057e2,9.115175e1 1.0037055e2,9.1689545e1 1.00404755e2,9.219304e1 1.00310844e2,9.268889e1 1.00062935e2,9.3193344e1 9.968351e1,9.3608055e1 9.9579025e1,9.368823e1 9.915336e1,9.392015e1 9.8684166e1,9.404194e1 9.817639e1,9.404358e1 9.768482e1,9.3916306e1 " /><polyline points="1.0767827e2,9.404054e1 1.072146e2,9.391821e1 1.067938e2,9.368823e1 1.06678925e2,9.359946e1 1.063061e2,9.3187775e1 1.0606198e2,9.268889e1 1.0596807e2,9.219304e1 1.0600227e2,9.1689545e1 1.06192245e2,9.115175e1 1.06527336e2,9.06902e1 1.06678925e2,9.054996e1 1.07147644e2,9.025929e1 1.0767827e2,9.010887e1 1.08185684e2,9.010451e1 1.0867761e2,9.022897e1 1.0904851e2,9.0422844e1 1.0937049e2,9.06902e1 1.09676956e2,9.109923e1 1.0980982e2,9.1385666e1 1.0989555e2,9.1689545e1 1.09929756e2,9.219304e1 1.09835846e2,9.268889e1 1.09676956e2,9.305014e1 1.09425385e2,9.340051e1 1.0910401e2,9.368823e1 1.0867761e2,9.392044e1 1.08185684e2,9.404491e1 1.0767827e2,9.404054e1 " /><polyline points="1.4165596e2,9.205384e1 1.4129526e2,9.1689545e1 1.4102866e2,9.121715e1 1.4089995e2,9.06902e1 1.4091339e2,9.018039e1 1.4105634e2,8.969086e1 1.4130804e2,8.926826e1 1.4165596e2,8.892057e1 1.4204108e2,8.869151e1 1.4234035e2,8.857591e1 1.426553e2,8.851491e1 1.4316455e2,8.852423e1 1.4365465e2,8.866287e1 1.4371834e2,8.869151e1 1.4400735e2,8.88584e1 1.4426428e2,8.907138e1 1.4448189e2,8.93244e1 1.4465399e2,8.9610344e1 1.4469148e2,8.969086e1 1.4483441e2,9.018039e1 1.4484787e2,9.06902e1 1.4478093e2,9.10358e1 1.4465399e2,9.136412e1 1.4445256e2,9.1689545e1 1.440939e2,9.205224e1 1.4365465e2,9.231154e1 1.4316455e2,9.245018e1 1.426553e2,9.24595e1 1.4212753e2,9.2325874e1 1.4165596e2,9.205384e1 " /><polyline points="1.35480585e1,7.470068e1 1.3739901e1,7.4741066e1 1.4739246e1,7.491493e1 1.573859e1,7.5028824e1 1.6737934e1,7.5083916e1 1.773728e1,7.5080795e1 1.8736624e1,7.501942e1 1.9735968e1,7.4899155e1 2.0735312e1,7.471874e1 2.0819773e1,7.470068e1 2.1734655e1,7.447622e1 2.2734e1,7.41688e1 2.3733343e1,7.379273e1 2.3950796e1,7.370134e1 2.4732687e1,7.334298e1 2.573203e1,7.281289e1 2.5922596e1,7.2701996e1 2.6731379e1,7.219352e1 2.7427986e1,7.170265e1 2.7730722e1,7.147265e1 2.8652136e1,7.070331e1 2.8730066e1,7.063305e1 2.9677986e1,6.9703964e1 2.972941e1,6.964928e1 3.055127e1,6.870462e1 3.0728754e1,6.848117e1 3.1300327e1,6.770528e1 3.1728098e1,6.705845e1 3.1944092e1,6.6705925e1 3.249584e1,6.570658e1 3.272744e1,6.5234314e1 3.296523e1,6.470724e1 3.335943e1,6.3707893e1 3.3683834e1,6.270855e1 3.3726784e1,6.2558495e1 3.3942497e1,6.1709206e1 3.4138424e1,6.070986e1 3.4273773e1,5.9710518e1 3.434998e1,5.8711174e1 3.4367832e1,5.771183e1 3.432751e1,5.6712486e1 3.42286e1,5.5713142e1 3.4070072e1,5.47138e1 3.3850227e1,5.3714455e1 3.3726784e1,5.3250923e1 3.3566597e1,5.271511e1 3.3215797e1,5.1715767e1 3.2793297e1,5.0716423e1 3.272744e1,5.0575104e1 3.2293083e1,4.971708e1 3.1728098e1,4.875097e1 3.1707125e1,4.8717728e1 3.1024544e1,4.7718384e1 3.0728754e1,4.7328247e1 3.023018e1,4.671904e1 2.972941e1,4.616014e1 2.930207e1,4.5719696e1 2.8730066e1,4.517637e1 2.8206482e1,4.4720352e1 2.7730722e1,4.433677e1 2.6886845e1,4.372101e1 2.6731379e1,4.36159e1 2.573203e1,4.299653e1 2.523372e1,4.2721664e1 2.4732687e1,4.246644e1 2.3733343e1,4.2016685e1 2.2967903e1,4.172232e1 2.2734e1,4.1640617e1 2.1734655e1,4.13332e1 2.0735312e1,4.1090675e1 1.9735968e1,4.0910263e1 1.8736624e1,4.079e1 1.773728e1,4.0728622e1 1.6737934e1,4.0725502e1 1.573859e1,4.0780594e1 1.4739246e1,4.0894485e1 1.3739901e1,4.106835e1 1.2740557e1,4.1304085e1 1.1741213e1,4.160437e1 1.1399928e1,4.172232e1 1.0741869e1,4.1972847e1 9.742523e0,4.241439e1 9.13411e0,4.2721664e1 8.743179e0,4.293547e1 7.7438354e0,4.354473e1 7.4809856e0,4.372101e1 6.7444916e0,4.4253975e1 6.1613493e0,4.4720352e1 5.7451477e0,4.507978e1 5.0657606e0,4.5719696e1 4.745802e0,4.6046486e1 4.137652e0,4.671904e1 3.746458e0,4.7192146e1 3.3432884e0,4.7718384e1 2.7471142e0,4.8582535e1 2.660708e0,4.8717728e1 2.0747483e0,4.971708e1 1.7477702e0,5.0351593e1 1.574536e0,5.0716423e1 1.1520355e0,5.1715767e1 8.0123246e-1,5.271511e1 7.484254e-1,5.2884857e1 5.176031e-1,5.3714455e1 2.9775935e-1,5.47138e1 1.392332e-1,5.5713142e1 4.0320516e-2,5.6712486e1 0.0e0,5.771183e1 1.7850786e-2,5.8711174e1 9.4058335e-2,5.9710518e1 2.2940737e-1,6.070986e1 4.2533517e-1,6.1709206e1 6.839969e-1,6.270855e1 7.484254e-1,6.292456e1 1.0084018e0,6.3707893e1 1.4026037e0,6.470724e1 1.7477702e0,6.5457825e1 1.8719927e0,6.570658e1 2.4237409e0,6.6705925e1 2.7471142e0,6.722688e1 3.0675046e0,6.770528e1 3.746458e0,6.861727e1 3.8165622e0,6.870462e1 4.689845e0,6.9703964e1 4.745802e0,6.976293e1 5.715697e0,7.070331e1 5.7451477e0,7.072964e1 6.7444916e0,7.155544e1 6.9398456e0,7.170265e1 7.7438354e0,7.226469e1 8.445237e0,7.2701996e1 8.743179e0,7.287395e1 9.742523e0,7.339503e1 1.0417038e1,7.370134e1 1.0741869e1,7.383657e1 1.1741213e1,7.420505e1 1.2740557e1,7.450533e1 1.35480585e1,7.470068e1 " /><polyline points="5.426806e1,7.470068e1 5.471302e1,7.479087e1 5.5712364e1,7.4949394e1 5.6711708e1,7.50483e1 5.7711052e1,7.508862e1 5.8710396e1,7.507077e1 5.970974e1,7.499457e1 6.0709084e1,7.4859215e1 6.153977e1,7.470068e1 6.1708427e1,7.4663284e1 6.270777e1,7.4404625e1 6.3707115e1,7.4080215e1 6.467079e1,7.370134e1 6.470646e1,7.368601e1 6.57058e1,7.321662e1 6.664259e1,7.2701996e1 6.670515e1,7.266487e1 6.77045e1,7.202111e1 6.814799e1,7.170265e1 6.870384e1,7.127205e1 6.937214e1,7.070331e1 6.9703186e1,7.0398766e1 7.039799e1,6.9703964e1 7.070253e1,6.937291e1 7.127127e1,6.870462e1 7.170187e1,6.814876e1 7.2020325e1,6.770528e1 7.266409e1,6.6705925e1 7.270122e1,6.664336e1 7.3215836e1,6.570658e1 7.368523e1,6.470724e1 7.370056e1,6.4671555e1 7.407943e1,6.3707893e1 7.440383e1,6.270855e1 7.46625e1,6.1709206e1 7.4699905e1,6.154049e1 7.485842e1,6.070986e1 7.4993774e1,5.9710518e1 7.506998e1,5.8711174e1 7.508783e1,5.771183e1 7.504751e1,5.6712486e1 7.49486e1,5.5713142e1 7.479007e1,5.47138e1 7.4699905e1,5.426893e1 7.457023e1,5.3714455e1 7.42866e1,5.271511e1 7.39358e1,5.1715767e1 7.370056e1,5.1137863e1 7.35133e1,5.0716423e1 7.3013084e1,4.971708e1 7.270122e1,4.916606e1 7.2427124e1,4.8717728e1 7.1744545e1,4.7718384e1 7.170187e1,4.766066e1 7.095018e1,4.671904e1 7.070253e1,4.643651e1 7.002207e1,4.5719696e1 6.9703186e1,4.5410652e1 6.892648e1,4.4720352e1 6.870384e1,4.453737e1 6.77045e1,4.3788307e1 6.760684e1,4.372101e1 6.670515e1,4.3144547e1 6.595372e1,4.2721664e1 6.57058e1,4.2592796e1 6.470646e1,4.2123405e1 6.3707115e1,4.1729202e1 6.3687904e1,4.172232e1 6.270777e1,4.1404793e1 6.1708427e1,4.1146133e1 6.0709084e1,4.0950203e1 5.970974e1,4.081485e1 5.8710396e1,4.0738647e1 5.8217155e1,4.0722977e1 5.7711052e1,4.0720795e1 5.7597694e1,4.0722977e1 5.6711708e1,4.0761116e1 5.5712364e1,4.0860023e1 5.471302e1,4.1018547e1 5.3713676e1,4.1238396e1 5.2714333e1,4.1522026e1 5.211993e1,4.172232e1 5.171499e1,4.1872826e1 5.0715645e1,4.229532e1 4.985411e1,4.2721664e1 4.97163e1,4.2795532e1 4.871695e1,4.3381493e1 4.8200985e1,4.372101e1 4.7717606e1,4.406407e1 4.688135e1,4.4720352e1 4.671826e1,4.485843e1 4.5785763e1,4.5719696e1 4.5718918e1,4.5786537e1 4.485765e1,4.671904e1 4.4719574e1,4.6882126e1 4.406329e1,4.7718384e1 4.372023e1,4.820176e1 4.3380707e1,4.8717728e1 4.279475e1,4.971708e1 4.2720886e1,4.9854874e1 4.2294537e1,5.0716423e1 4.1872036e1,5.1715767e1 4.1721542e1,5.212068e1 4.1521233e1,5.271511e1 4.1237602e1,5.3714455e1 4.101776e1,5.47138e1 4.085923e1,5.5713142e1 4.0760323e1,5.6712486e1 4.07222e1,5.759816e1 4.0719997e1,5.771183e1 4.07222e1,5.821836e1 4.073785e1,5.8711174e1 4.0814056e1,5.9710518e1 4.094941e1,6.070986e1 4.1145336e1,6.1709206e1 4.1403996e1,6.270855e1 4.1721542e1,6.3688736e1 4.17284e1,6.3707893e1 4.2122604e1,6.470724e1 4.259199e1,6.570658e1 4.2720886e1,6.5954544e1 4.314374e1,6.6705925e1 4.372023e1,6.760766e1 4.3787506e1,6.770528e1 4.4536564e1,6.870462e1 4.4719574e1,6.892729e1 4.5409847e1,6.9703964e1 4.5718918e1,7.002288e1 4.6435696e1,7.070331e1 4.671826e1,7.095099e1 4.7659847e1,7.170265e1 4.7717606e1,7.1745346e1 4.871695e1,7.2427925e1 4.9165237e1,7.2701996e1 4.97163e1,7.3013885e1 5.0715645e1,7.35141e1 5.113704e1,7.370134e1 5.171499e1,7.393659e1 5.2714333e1,7.428739e1 5.3713676e1,7.457102e1 5.426806e1,7.470068e1 " /><polyline points="8.60028e1,6.9703964e1 8.669204e1,6.987955e1 8.769138e1,7.008117e1 8.869073e1,7.022205e1 8.969007e1,7.030368e1 9.0689415e1,7.032691e1 9.168876e1,7.029198e1 9.26881e1,7.019852e1 9.368745e1,7.0045555e1 9.468679e1,6.9831474e1 9.5175026e1,6.9703964e1 9.5686134e1,6.955386e1 9.668548e1,6.920944e1 9.768482e1,6.87938e1 9.787833e1,6.870462e1 9.8684166e1,6.830107e1 9.968351e1,6.772345e1 9.969957e1,6.770528e1 9.9738914e1,6.6705925e1 9.9738914e1,4.372101e1 9.973892e1,4.3426308e1 9.968351e1,4.3341805e1 9.8684166e1,4.274585e1 9.863872e1,4.2721664e1 9.768482e1,4.225312e1 9.668548e1,4.183747e1 9.63729e1,4.172232e1 9.5686134e1,4.149305e1 9.468679e1,4.1215446e1 9.368745e1,4.1001358e1 9.26881e1,4.0848404e1 9.168876e1,4.0754944e1 9.094603e1,4.0722977e1 9.0689415e1,4.072e1 9.023461e1,4.0722977e1 8.969007e1,4.0743233e1 8.869073e1,4.0824867e1 8.769138e1,4.0965744e1 8.669204e1,4.1167366e1 8.5692696e1,4.143197e1 8.4804924e1,4.172232e1 8.4693344e1,4.1762634e1 8.3694e1,4.2163544e1 8.269466e1,4.2640213e1 8.253911e1,4.2721664e1 8.169531e1,4.318325e1 8.14389e1,4.3391006e1 8.143891e1,4.372101e1 8.143891e1,6.6705925e1 8.144791e1,6.770528e1 8.169531e1,6.78469e1 8.269466e1,6.840671e1 8.32995e1,6.870462e1 8.3694e1,6.888338e1 8.4693344e1,6.928428e1 8.5692696e1,6.961495e1 8.60028e1,6.9703964e1 " /><polyline points="1.1741213e1,6.3667206e1 1.1421417e1,6.357425e1 1.1421416e1,6.270855e1 1.1421416e1,5.271511e1 1.1421415e1,5.234005e1 1.1520124e1,5.2142212e1 1.1741213e1,5.214408e1 1.2740557e1,5.2142212e1 2.1734655e1,5.2142212e1 2.2734e1,5.2132683e1 2.2946417e1,5.216957e1 2.2946415e1,5.271511e1 2.2946415e1,6.270855e1 2.2946417e1,6.3489166e1 2.2734e1,6.366774e1 2.1734655e1,6.3667206e1 1.1741213e1,6.3667206e1 " /><polyline points="5.2714333e1,6.3667206e1 5.2345013e1,6.3667206e1 5.214141e1,6.3359077e1 5.2141415e1,6.270855e1 5.2141415e1,5.271511e1 5.2141426e1,5.2142212e1 6.3358284e1,5.2142212e1 6.3666416e1,5.2345802e1 6.3666416e1,6.270855e1 6.366641e1,6.366719e1 5.2714333e1,6.3667206e1 " /><polyline points="8.5692696e1,6.3667206e1 8.525509e1,6.3667213e1 8.482641e1,6.3579285e1 8.4826416e1,6.270855e1 8.4826416e1,5.271511e1 8.482641e1,5.237683e1 8.5070114e1,5.2142212e1 9.626546e1,5.2142197e1 9.63514e1,5.2422203e1 9.635141e1,5.271511e1 9.635141e1,6.3418724e1 9.606517e1,6.36672e1 8.5692696e1,6.3667206e1 " /><polyline points="3.746458e0,5.980271e1 3.209591e0,5.9710518e1 2.7471142e0,5.948719e1 2.3588688e0,5.914524e1 2.077355e0,5.8711174e1 1.9244462e0,5.8223053e1 1.9073895e0,5.771183e1 2.0403774e0,5.718229e1 2.3185587e0,5.6712486e1 2.7471142e0,5.6322227e1 3.224583e0,5.6094147e1 3.746458e0,5.6006714e1 4.2636952e0,5.6064507e1 4.745802e0,5.6260582e1 5.030695e0,5.6462166e1 5.273875e0,5.6712486e1 5.552057e0,5.718229e1 5.6850443e0,5.771183e1 5.6679873e0,5.8223053e1 5.515079e0,5.8711174e1 5.1946325e0,5.9188957e1 4.745802e0,5.9548836e1 4.3674426e0,5.9710518e1 4.061134e0,5.978479e1 3.746458e0,5.980271e1 " /><polyline points="3.0728754e1,5.9796844e1 3.0355114e1,5.9790977e1 2.9990192e1,5.9710518e1 2.972941e1,5.9606346e1 2.9456541e1,5.944142e1 2.9215115e1,5.9233154e1 2.901194e1,5.8987434e1 2.8852753e1,5.8711174e1 2.8730066e1,5.8359505e1 2.8677633e1,5.8037766e1 2.8682787e1,5.771183e1 2.8730066e1,5.746673e1 2.886726e1,5.7068016e1 2.9093954e1,5.6712486e1 2.9384045e1,5.64233e1 2.972941e1,5.620307e1 3.0216085e1,5.6039642e1 3.0728754e1,5.6012573e1 3.125624e1,5.613379e1 3.1728098e1,5.639891e1 3.2049274e1,5.6712486e1 3.2327454e1,5.718229e1 3.246044e1,5.771183e1 3.2443382e1,5.8223053e1 3.2290478e1,5.8711174e1 3.20512e1,5.9094543e1 3.1728098e1,5.9410507e1 3.117292e1,5.9710518e1 3.0728754e1,5.9796844e1 " /><polyline points="4.4719574e1,5.9792435e1 4.4320244e1,5.979323e1 4.3929573e1,5.9710518e1 4.372023e1,5.962845e1 4.3432465e1,5.9463676e1 4.3177765e1,5.9251335e1 4.2963886e1,5.8997925e1 4.2797356e1,5.8711174e1 4.2720886e1,5.8524185e1 4.263017e1,5.812307e1 4.2627388e1,5.771183e1 4.2720886e1,5.730841e1 4.284993e1,5.6994568e1 4.303856e1,5.6712486e1 4.334874e1,5.6407417e1 4.372023e1,5.618097e1 4.4208767e1,5.6031113e1 4.4719574e1,5.6016983e1 4.5249737e1,5.615348e1 4.5718918e1,5.643557e1 4.5993874e1,5.6712486e1 4.6272053e1,5.718229e1 4.6405045e1,5.771183e1 4.638799e1,5.8223053e1 4.6235077e1,5.8711174e1 4.6014107e1,5.907141e1 4.5718918e1,5.9373856e1 4.5423195e1,5.9572716e1 4.509455e1,5.9710518e1 4.4719574e1,5.9792435e1 " /><polyline points="7.170187e1,5.9758507e1 7.120031e1,5.9801163e1 7.070516e1,5.9710518e1 7.070253e1,5.9709663e1 7.04075e1,5.958496e1 7.013764e1,5.9412415e1 6.9900604e1,5.9196976e1 6.9703186e1,5.8944748e1 6.9572754e1,5.8711174e1 6.9419846e1,5.8223053e1 6.940279e1,5.771183e1 6.950213e1,5.7270187e1 6.9703186e1,5.6864624e1 6.981396e1,5.6712486e1 7.021378e1,5.6341652e1 7.070253e1,5.6099754e1 7.119893e1,5.6008324e1 7.170187e1,5.605091e1 7.224692e1,5.6263893e1 7.270122e1,5.6632744e1 7.276927e1,5.6712486e1 7.3047455e1,5.718229e1 7.318044e1,5.771183e1 7.316338e1,5.8223053e1 7.3010475e1,5.8711174e1 7.270122e1,5.9176666e1 7.231943e1,5.9501114e1 7.186426e1,5.9710518e1 7.170187e1,5.9758507e1 " /><polyline points="1.426553e2,5.5947006e1 1.4227466e2,5.586644e1 1.4191705e2,5.5713142e1 1.4165596e2,5.5541344e1 1.4128915e2,5.5169e1 1.410323e2,5.47138e1 1.4090504e2,5.422223e1 1.4090668e2,5.3714455e1 1.4105368e2,5.3184425e1 1.4134056e2,5.271511e1 1.4165596e2,5.2408073e1 1.4212753e2,5.213604e1 1.426553e2,5.200241e1 1.4316455e2,5.2011726e1 1.4365465e2,5.2150375e1 1.4406491e2,5.2387497e1 1.4440726e2,5.271511e1 1.4465399e2,5.309781e1 1.4477277e2,5.3398483e1 1.4484114e2,5.3714455e1 1.4484279e2,5.422223e1 1.447155e2,5.47138e1 1.4465399e2,5.4851524e1 1.443086e2,5.5345634e1 1.4383069e2,5.5713142e1 1.4365465e2,5.579904e1 1.4316455e2,5.593769e1 1.426553e2,5.5947006e1 " /><polyline points="1.4165596e2,4.6016342e1 1.4134915e2,4.5719696e1 1.410585e2,4.525097e1 1.4090808e2,4.4720352e1 1.4090372e2,4.4212936e1 1.4102817e2,4.372101e1 1.4128578e2,4.3259888e1 1.4165596e2,4.288307e1 1.418984e2,4.2721664e1 1.422645e2,4.256122e1 1.426553e2,4.247741e1 1.4316455e2,4.2486725e1 1.4365465e2,4.2625374e1 1.4384933e2,4.2721664e1 1.4431595e2,4.3086517e1 1.4465399e2,4.35729e1 1.4471964e2,4.372101e1 1.4484412e2,4.4212936e1 1.4483974e2,4.4720352e1 1.4477124e2,4.5030945e1 1.4465399e2,4.53266e1 1.4439867e2,4.5719696e1 1.4405951e2,4.6040962e1 1.4365465e2,4.627404e1 1.4316455e2,4.641269e1 1.426553e2,4.6422005e1 1.4212753e2,4.628837e1 1.4165596e2,4.6016342e1 " /><polyline points="1.2530082e1,3.3727562e1 1.2740557e1,3.378533e1 1.3739901e1,3.4021065e1 1.4739246e1,3.419493e1 1.573859e1,3.4308823e1 1.6737934e1,3.4363914e1 1.773728e1,3.4360794e1 1.8736624e1,3.4299416e1 1.9735968e1,3.4179153e1 2.0735312e1,3.399874e1 2.1734655e1,3.3756218e1 2.1837753e1,3.3727562e1 2.2734e1,3.34488e1 2.3733343e1,3.307273e1 2.4513548e1,3.2728218e1 2.4732687e1,3.262298e1 2.573203e1,3.2092888e1 2.6337683e1,3.1728874e1 2.6731379e1,3.1473518e1 2.7730722e1,3.0752647e1 2.7760399e1,3.072953e1 2.8730066e1,2.9913048e1 2.8928495e1,2.9730186e1 2.972941e1,2.8929276e1 2.991227e1,2.8730843e1 3.0728754e1,2.776117e1 3.0751871e1,2.7731499e1 3.1472738e1,2.6732155e1 3.1728098e1,2.6338448e1 3.2092106e1,2.5732811e1 3.2622192e1,2.4733467e1 3.272744e1,2.4514305e1 3.3071938e1,2.373413e1 3.3448013e1,2.2734787e1 3.3726784e1,2.1838486e1 3.375543e1,2.1735443e1 3.399795e1,2.07361e1 3.4178364e1,1.9736755e1 3.4298626e1,1.8737411e1 3.4360004e1,1.7738068e1 3.4363125e1,1.6738724e1 3.430803e1,1.573938e1 3.419414e1,1.4740036e1 3.4020275e1,1.3740692e1 3.3784542e1,1.2741348e1 3.3726784e1,1.253093e1 3.3484257e1,1.1742004e1 3.3115776e1,1.07426605e1 3.272744e1,9.855103e0 3.2674232e1,9.743317e0 3.2153156e1,8.743973e0 3.1728098e1,8.03096e0 3.15439e1,7.744629e0 3.0834654e1,6.745285e0 3.0728754e1,6.608246e0 3.0008846e1,5.745941e0 2.972941e1,5.44014e0 2.9042147e1,4.7465973e0 2.8730066e1,4.456375e0 2.789648e1,3.7472534e0 2.7730722e1,3.6167603e0 2.6731379e1,2.8958893e0 2.6506073e1,2.7478943e0 2.573203e1,2.2765198e0 2.4737011e1,1.7485504e0 2.4732687e1,1.7464294e0 2.3733343e1,1.2966919e0 2.2734e1,9.206085e-1 2.2203728e1,7.4920654e-1 2.1734655e1,6.131897e-1 2.0735312e1,3.706665e-1 1.9735968e1,1.9026184e-1 1.8736624e1,6.9992065e-2 1.773728e1,8.621216e-3 1.6737934e1,5.493164e-3 1.573859e1,6.059265e-2 1.4739246e1,1.7448425e-1 1.3739901e1,3.483429e-1 1.2740557e1,5.840759e-1 1.2164105e1,7.4920654e-1 1.1741213e1,8.843689e-1 1.0741869e1,1.2528381e0 9.742523e0,1.694397e0 9.630818e0,1.7485504e0 8.743179e0,2.2154694e0 7.861757e0,2.7478943e0 7.7438354e0,2.8247223e0 6.7444916e0,3.533966e0 6.4713507e0,3.7472534e0 5.7451477e0,4.359787e0 5.325685e0,4.7465973e0 4.745802e0,5.326477e0 4.358987e0,5.745941e0 3.746458e0,6.4721527e0 3.5331774e0,6.745285e0 2.8239331e0,7.744629e0 2.7471142e0,7.8625336e0 2.2146742e0,8.743973e0 1.7477702e0,9.631592e0 1.693599e0,9.743317e0 1.2520545e0,1.07426605e1 8.8357383e-1,1.1742004e1 7.484254e-1,1.2164856e1 5.8329e-1,1.2741348e1 3.475579e-1,1.3740692e1 1.736907e-1,1.4740036e1 5.980286e-2,1.573938e1 4.705459e-3,1.6738724e1 7.827193e-3,1.7738068e1 6.920624e-2,1.8737411e1 1.8946773e-1,1.9736755e1 3.6988086e-1,2.07361e1 6.124047e-1,2.1735443e1 7.484254e-1,2.220456e1 9.198183e-1,2.2734787e1 1.2958935e0,2.373413e1 1.7456384e0,2.4733467e1 1.7477702e0,2.4737823e1 2.2757266e0,2.5732811e1 2.7471142e0,2.6506882e1 2.8950934e0,2.6732155e1 3.6159608e0,2.7731499e1 3.746458e0,2.789727e1 4.455562e0,2.8730843e1 4.745802e0,2.904293e1 5.439337e0,2.9730186e1 5.7451477e0,3.0009636e1 6.6074333e0,3.072953e1 6.7444916e0,3.0835442e1 7.7438354e0,3.1544685e1 8.0301485e0,3.1728874e1 8.743179e0,3.2153946e1 9.742523e0,3.2675026e1 9.854285e0,3.2728218e1 1.0741869e1,3.311657e1 1.1741213e1,3.3485046e1 1.2530082e1,3.3727562e1 " /><polyline points="5.3250076e1,3.3727562e1 5.3713676e1,3.385102e1 5.471302e1,3.407087e1 5.5712364e1,3.4229393e1 5.6711708e1,3.43283e1 5.7711052e1,3.436862e1 5.8710396e1,3.435077e1 5.970974e1,3.4274567e1 6.0709084e1,3.4139214e1 6.1708427e1,3.3943283e1 6.255775e1,3.3727562e1 6.270777e1,3.3684624e1 6.3707115e1,3.3360214e1 6.470646e1,3.296601e1 6.523354e1,3.2728218e1 6.57058e1,3.249662e1 6.670515e1,3.194487e1 6.705768e1,3.1728874e1 6.77045e1,3.130111e1 6.84804e1,3.072953e1 6.870384e1,3.0552048e1 6.96485e1,2.9730186e1 6.9703186e1,2.9678764e1 7.063227e1,2.8730843e1 7.070253e1,2.8652908e1 7.147187e1,2.7731499e1 7.170187e1,2.7428757e1 7.219273e1,2.6732155e1 7.270122e1,2.5923355e1 7.28121e1,2.5732811e1 7.334219e1,2.4733467e1 7.370056e1,2.3951553e1 7.379194e1,2.373413e1 7.4168015e1,2.2734787e1 7.4475426e1,2.1735443e1 7.4699905e1,2.082048e1 7.471795e1,2.07361e1 7.489836e1,1.9736755e1 7.501862e1,1.8737411e1 7.508e1,1.7738068e1 7.508312e1,1.6738724e1 7.502803e1,1.573938e1 7.491414e1,1.4740036e1 7.474027e1,1.3740692e1 7.4699905e1,1.3548935e1 7.450454e1,1.2741348e1 7.4204254e1,1.1742004e1 7.383578e1,1.07426605e1 7.370056e1,1.0417862e1 7.339423e1,9.743317e0 7.287315e1,8.743973e0 7.270122e1,8.44606e0 7.22639e1,7.744629e0 7.170187e1,6.9406586e0 7.155466e1,6.745285e0 7.072884e1,5.745941e0 7.070253e1,5.716507e0 6.9762146e1,4.7465973e0 6.9703186e1,4.6906586e0 6.870384e1,3.8173676e0 6.861648e1,3.7472534e0 6.77045e1,3.0683136e0 6.7226074e1,2.7478943e0 6.670515e1,2.4245453e0 6.57058e1,1.8727875e0 6.545701e1,1.7485504e0 6.470646e1,1.4033966e0 6.3707115e1,1.009201e0 6.292373e1,7.4920654e-1 6.270777e1,6.847992e-1 6.1708427e1,4.261322e-1 6.0709084e1,2.3020935e-1 5.970974e1,9.484863e-2 5.8710396e1,1.864624e-2 5.7711052e1,7.9345703e-4 5.6711708e1,4.1107178e-2 5.5712364e1,1.4001465e-1 5.471302e1,2.9855347e-1 5.3713676e1,5.1838684e-1 5.28841e1,7.4920654e-1 5.2714333e1,8.020172e-1 5.171499e1,1.1528168e0 5.0715645e1,1.5753174e0 5.035082e1,1.7485504e0 4.97163e1,2.075531e0 4.871695e1,2.6614838e0 4.8581757e1,2.7478943e0 4.7717606e1,3.3440704e0 4.7191353e1,3.7472534e0 4.671826e1,4.1384277e0 4.6045685e1,4.7465973e0 4.5718918e1,5.0665436e0 4.5078987e1,5.745941e0 4.4719574e1,6.1621246e0 4.4253178e1,6.745285e0 4.372023e1,7.4817505e0 4.3543934e1,7.744629e0 4.2934673e1,8.743973e0 4.2720886e1,9.134872e0 4.24136e1,9.743317e0 4.1972054e1,1.07426605e1 4.1721542e1,1.1400681e1 4.1603573e1,1.1742004e1 4.130329e1,1.2741348e1 4.106756e1,1.3740692e1 4.089369e1,1.4740036e1 4.0779804e1,1.573938e1 4.0724705e1,1.6738724e1 4.072783e1,1.7738068e1 4.0789207e1,1.8737411e1 4.090947e1,1.9736755e1 4.108988e1,2.07361e1 4.1332405e1,2.1735443e1 4.163982e1,2.2734787e1 4.1721542e1,2.2968735e1 4.2015892e1,2.373413e1 4.2465637e1,2.4733467e1 4.2720886e1,2.5234543e1 4.2995728e1,2.5732811e1 4.3615093e1,2.6732155e1 4.372023e1,2.6887657e1 4.433596e1,2.7731499e1 4.4719574e1,2.820729e1 4.5175564e1,2.8730843e1 4.5718918e1,2.930288e1 4.6159336e1,2.9730186e1 4.671826e1,3.0230988e1 4.7327435e1,3.072953e1 4.7717606e1,3.1025345e1 4.871695e1,3.1707924e1 4.875015e1,3.1728874e1 4.97163e1,3.2293884e1 5.0574287e1,3.2728218e1 5.0715645e1,3.2794098e1 5.171499e1,3.321659e1 5.2714333e1,3.356739e1 5.3250076e1,3.3727562e1 " /><polyline points="8.517111e1,2.8730843e1 8.5692696e1,2.889495e1 8.669204e1,2.9159546e1 8.769138e1,2.9361168e1 8.869073e1,2.9502052e1 8.969007e1,2.958368e1 9.0689415e1,2.960691e1 9.168876e1,2.9571976e1 9.26881e1,2.9478516e1 9.368745e1,2.9325554e1 9.468679e1,2.9111473e1 9.5686134e1,2.8833862e1 9.6006714e1,2.8730843e1 9.668548e1,2.848944e1 9.768482e1,2.80738e1 9.839595e1,2.7731499e1 9.8684166e1,2.758107e1 9.968351e1,2.6985947e1 9.9738914e1,2.6938225e1 9.9738914e1,2.6717224e0 9.968351e1,2.6194458e0 9.8684166e1,2.0258484e0 9.814201e1,1.7485504e0 9.768482e1,1.5331116e0 9.668548e1,1.1174774e0 9.5686134e1,7.7305603e-1 9.560873e1,7.4920654e-1 9.468679e1,4.9543762e-1 9.368745e1,2.813568e-1 9.26881e1,1.2840271e-1 9.168876e1,3.4942627e-2 9.0689415e1,0.0e0 8.969007e1,2.3223877e-2 8.869073e1,1.048584e-1 8.769138e1,2.457428e-1 8.669204e1,4.4737244e-1 8.5692696e1,7.1195984e-1 8.55691e1,7.4920654e-1 8.4693344e1,1.042633e0 8.3694e1,1.4435425e0 8.303582e1,1.7485504e0 8.269466e1,1.9202118e0 8.169531e1,2.480011e0 8.14389e1,2.6383057e0 8.143891e1,2.7478943e0 8.143891e1,2.6732155e1 8.147338e1,2.699041e1 8.169531e1,2.71269e1 8.269466e1,2.7686707e1 8.2781876e1,2.7731499e1 8.3694e1,2.8163376e1 8.4693344e1,2.8564278e1 8.517111e1,2.8730843e1 " /><polyline points="1.1741213e1,2.2947205e1 1.1506913e1,2.2947205e1 1.1421417e1,2.2857773e1 1.1408052e1,2.2734787e1 1.1421416e1,2.1735443e1 1.1421416e1,1.1742004e1 1.1421415e1,1.1422211e1 2.1734655e1,1.1422211e1 2.2734e1,1.1408844e1 2.2856993e1,1.1422195e1 2.2946413e1,1.1507706e1 2.2946415e1,1.1742004e1 2.2946415e1,2.2734787e1 2.2946413e1,2.294719e1 1.1741213e1,2.2947205e1 " /><polyline points="5.2714333e1,2.2947205e1 5.216876e1,2.294722e1 5.2131897e1,2.2734787e1 5.2141415e1,2.1735443e1 5.2141415e1,1.2741348e1 5.2143295e1,1.1742004e1 5.2141415e1,1.1520905e1 5.2339275e1,1.1422226e1 6.3573483e1,1.1422195e1 6.3666416e1,1.1742004e1 6.3666416e1,2.1735443e1 6.3666943e1,2.2734787e1 6.3488377e1,2.294719e1 5.2714333e1,2.2947205e1 " /><polyline points="8.5692696e1,2.2947205e1 8.4982e1,2.2947205e1 8.483769e1,2.2734787e1 8.4826416e1,2.1735443e1 8.4826416e1,1.2741348e1 8.482181e1,1.1742004e1 8.4874405e1,1.1422195e1 9.610142e1,1.1422211e1 9.63514e1,1.1484741e1 9.636637e1,1.1742004e1 9.635141e1,1.2741348e1 9.635141e1,2.1735443e1 9.634186e1,2.2734787e1 9.627201e1,2.2947205e1 8.5692696e1,2.2947205e1 " /><polyline points="2.7471142e0,1.8767197e1 2.703529e0,1.8737411e1 2.4627109e0,1.853624e1 2.2583199e0,1.8298157e1 2.095938e0,1.8029648e1 1.9799938e0,1.7738068e1 1.898383e0,1.7240356e1 1.9506903e0,1.6738724e1 2.1787324e0,1.619043e1 2.5650077e0,1.573938e1 2.7471142e0,1.5602234e1 3.2245824e0,1.53741455e1 3.746458e0,1.5286713e1 4.2636924e0,1.5344513e1 4.745802e0,1.5540588e1 5.027427e0,1.573938e1 5.4137006e0,1.619043e1 5.6417437e0,1.6738724e1 5.6940503e0,1.7240356e1 5.6124396e0,1.7738068e1 5.4964957e0,1.8029648e1 5.3340993e0,1.8298157e1 5.1297197e0,1.8536255e1 4.888891e0,1.8737411e1 4.745802e0,1.8828842e1 4.2636924e0,1.9024902e1 3.746458e0,1.9082703e1 3.2245822e0,1.899527e1 2.7471142e0,1.8767197e1 " /><polyline points="2.972941e1,1.8886337e1 2.9478947e1,1.8737411e1 2.9238115e1,1.8536255e1 2.9033733e1,1.8298157e1 2.8871338e1,1.8029648e1 2.8755392e1,1.7738068e1 2.8730066e1,1.7630325e1 2.8672966e1,1.7184769e1 2.8726088e1,1.6738724e1 2.8730066e1,1.6730057e1 2.8956652e1,1.618631e1 2.93404e1,1.573938e1 2.972941e1,1.5483078e1 3.0216085e1,1.5319656e1 3.0728754e1,1.5292572e1 3.1256237e1,1.5413788e1 3.1728098e1,1.5678909e1 3.1802832e1,1.573938e1 3.2189106e1,1.619043e1 3.241714e1,1.6738724e1 3.2469448e1,1.7240356e1 3.2387836e1,1.7738068e1 3.2132404e1,1.8265839e1 3.1728098e1,1.8690506e1 3.166431e1,1.8737411e1 3.1219168e1,1.8969513e1 3.0728754e1,1.9076843e1 3.021608e1,1.904979e1 2.972941e1,1.8886337e1 " /><polyline points="4.372023e1,1.8908447e1 4.3423546e1,1.8737411e1 4.2991936e1,1.8316727e1 4.2831432e1,1.8060135e1 4.2720886e1,1.7778397e1 4.2699993e1,1.7738068e1 4.2618378e1,1.7240356e1 4.267069e1,1.6738724e1 4.2720886e1,1.6575851e1 4.2945133e1,1.6118622e1 4.3285004e1,1.573938e1 4.372023e1,1.5460968e1 4.4208767e1,1.5311127e1 4.4719574e1,1.5296982e1 4.524974e1,1.5433472e1 4.5718918e1,1.5715561e1 4.5747433e1,1.573938e1 4.61337e1,1.619043e1 4.6361744e1,1.6738724e1 4.6414055e1,1.7240356e1 4.633244e1,1.7738068e1 4.6093597e1,1.824147e1 4.5718918e1,1.8653854e1 4.5608913e1,1.8737411e1 4.5185543e1,1.8961456e1 4.4719574e1,1.9072433e1 4.4208767e1,1.9058304e1 4.372023e1,1.8908447e1 " /><polyline points="7.070253e1,1.8989655e1 7.019894e1,1.8737411e1 6.992677e1,1.8504578e1 6.9703186e1,1.8224762e1 6.9475395e1,1.7738068e1 6.9393776e1,1.7240356e1 6.944609e1,1.6738724e1 6.954913e1,1.6430649e1 6.9703186e1,1.6144638e1 7.0060394e1,1.573938e1 7.036386e1,1.5528152e1 7.070253e1,1.5379761e1 7.119893e1,1.528833e1 7.170187e1,1.5330902e1 7.213738e1,1.5484833e1 7.2522835e1,1.573938e1 7.270122e1,1.5912735e1 7.297076e1,1.6298508e1 7.313714e1,1.6738724e1 7.3189445e1,1.7240356e1 7.3107834e1,1.7738068e1 7.294407e1,1.8119736e1 7.270122e1,1.8456665e1 7.238431e1,1.8737411e1 7.205802e1,1.8921799e1 7.170187e1,1.9038498e1 7.119893e1,1.9081085e1 7.070253e1,1.8989655e1 " /></g></svg>