<?xml version="1.0" encoding="UTF-8"?>
<!DOCTYPE svg PUBLIC "-//W3C//DTD SVG 1.1//EN"
    "http://www.w3.org/Graphics/SVG/1.1/DTD/svg11.dtd">
<svg xmlns="http://www.w3.org/2000/svg" xmlns:xlink="http://www.w3.org/1999/xlink" version="1.1" width="152.3998mm" height="152.41849mm" viewBox="0.0 0.0 152.3998 152.41849"><g stroke="rgb(0,0,255)" stroke-width="1" fill="none"><polyline points="5.8212247e0,1.5164977e2 6.745363e0,1.5200046e2 7.744707e0,1.5220505e2 8.744051e0,1.5238112e2 9.743395e0,1.5239928e2 1.22669304e2,1.5239928e2 1.2366865e2,1.5241849e2 1.2382478e2,1.5226732e2 1.2382478e2,1.3366158e2 1.23824776e2,1.3345662e2 1.2378154e2,1.3334927e2 1.2366865e2,1.3332384e2 1.22669304e2,1.3334927e2 9.743395e0,1.3334927e2 8.744051e0,1.3338133e2 7.744707e0,1.3351709e2 7.105774e0,1.3366158e2 6.745363e0,1.3376382e2 5.7460194e0,1.341309e2 4.7466736e0,1.3463441e2 4.701276e0,1.3466092e2 3.74733e0,1.3530153e2 3.3051775e0,1.3566026e2 2.747986e0,1.3618095e2 2.3065164e0,1.366596e2 1.7486421e0,1.3737363e2 1.5544713e0,1.3765895e2 9.83647e-1,1.386583e2 7.492973e-1,1.3917072e2 5.6706494e-1,1.3965764e2 2.5858575e-1,1.4065698e2 4.69877e-2,1.4165633e2 1.1562442e-3,1.4265567e2 1.7950699e-2,1.4365501e2 1.94021e-1,1.4465436e2 3.986128e-1,1.456537e2 7.492973e-1,1.4657784e2 7.814176e-1,1.4665305e2 1.2849315e0,1.4765239e2 1.7486421e0,1.4837492e2 1.9520347e0,1.4865173e2 2.747986e0,1.495676e2 2.831465e0,1.4965108e2 3.74733e0,1.5044704e2 4.024136e0,1.5065042e2 4.7466736e0,1.5111414e2 5.7460194e0,1.5161765e2 5.8212247e0,1.5164977e2 " /><polyline points="1.3971745e2,1.4965108e2 1.4065749e2,1.4982138e2 1.4165683e2,1.4994405e2 1.4265617e2,1.5000777e2 1.4365552e2,1.5001324e2 1.4465486e2,1.499605e2 1.456542e2,1.4984898e2 1.4665355e2,1.4967757e2 1.4678212e2,1.4965108e2 1.476529e2,1.4944438e2 1.4865224e2,1.4914676e2 1.496516e2,1.487811e2 1.4996489e2,1.4865173e2 1.5065094e2,1.483426e2 1.5165028e2,1.4782489e2 1.5195097e2,1.4765239e2 1.5221307e2,1.4749535e2 1.5239978e2,1.472535e2 1.5239978e2,1.23334984e2 1.5233511e2,1.2300818e2 1.5176544e2,1.22668785e2 1.5165028e2,1.2260367e2 1.5065094e2,1.22085945e2 1.497061e2,1.2166944e2 1.496516e2,1.2164745e2 1.4865224e2,1.212818e2 1.476529e2,1.2098418e2 1.4665355e2,1.20750984e2 1.4622534e2,1.206701e2 1.456542e2,1.2057957e2 1.4465486e2,1.2046806e2 1.4365552e2,1.2041531e2 1.4265617e2,1.20420784e2 1.4165683e2,1.2048451e2 1.4065749e2,1.2060718e2 1.4027423e2,1.206701e2 1.3965814e2,1.2079004e2 1.386588e2,1.21035126e2 1.3765945e2,1.2134522e2 1.3679347e2,1.2166944e2 1.3666011e2,1.2172416e2 1.3566077e2,1.22177e2 1.3473413e2,1.22668785e2 1.3466142e2,1.22710495e2 1.3411955e2,1.2303621e2 1.340998e2,1.2366813e2 1.340998e2,1.472535e2 1.342865e2,1.4749535e2 1.345486e2,1.4765239e2 1.3466142e2,1.4771806e2 1.3566077e2,1.4825156e2 1.3653468e2,1.4865173e2 1.3666011e2,1.4870439e2 1.3765945e2,1.4908333e2 1.386588e2,1.4939343e2 1.3965814e2,1.4963852e2 1.3971745e2,1.4965108e2 " /><polyline points="1.5739462e1,1.4485403e2 1.5358899e1,1.4479042e2 1.4997844e1,1.4465436e2 1.4740118e1,1.4450224e2 1.4335836e1,1.4412701e2 1.4050454e1,1.4365501e2 1.3911814e1,1.4316492e2 1.3902492e1,1.4265567e2 1.4036126e1,1.4212791e2 1.4308157e1,1.4165633e2 1.4740118e1,1.412463e2 1.52158785e1,1.4100249e2 1.5739462e1,1.4089452e2 1.6251743e1,1.4092604e2 1.6738806e1,1.4108788e2 1.7122906e1,1.4133157e2 1.744142e1,1.4165633e2 1.7738152e1,1.4217403e2 1.7847086e1,1.4265567e2 1.7844524e1,1.4311487e2 1.7738152e1,1.435616e2 1.7699121e1,1.4365501e2 1.7532965e1,1.4396432e2 1.7314896e1,1.442395e2 1.7051737e1,1.4447194e2 1.675173e1,1.4465436e2 1.6738806e1,1.4466068e2 1.6251743e1,1.4482253e2 1.5739462e1,1.4485403e2 " /><polyline points="2.4733559e1,1.4474347e2 2.4522993e1,1.4465436e2 2.408108e1,1.443571e2 2.3734215e1,1.4395294e2 2.3575455e1,1.4365501e2 2.3436811e1,1.4316492e2 2.342749e1,1.4265567e2 2.3530706e1,1.4220773e2 2.3734215e1,1.4179556e2 2.3833157e1,1.4165633e2 2.4236841e1,1.4126639e2 2.4733559e1,1.4100508e2 2.522764e1,1.4089738e2 2.5732903e1,1.4091806e2 2.626727e1,1.4108955e2 2.673225e1,1.4140381e2 2.696642e1,1.4165633e2 2.723845e1,1.4212791e2 2.7372086e1,1.4265567e2 2.7362764e1,1.4316492e2 2.7224121e1,1.4365501e2 2.7015423e1,1.4402644e2 2.673225e1,1.4434476e2 2.627666e1,1.4465436e2 2.5732903e1,1.4483049e2 2.522764e1,1.4485117e2 2.4733559e1,1.4474347e2 " /><polyline points="6.17093e1,1.4484824e2 6.1363697e1,1.4478131e2 6.1035362e1,1.4465436e2 6.0709957e1,1.4445293e2 6.034725e1,1.4409428e2 6.0087955e1,1.4365501e2 5.994931e1,1.4316492e2 5.993999e1,1.4265567e2 6.0073627e1,1.421279e2 6.0345657e1,1.4165633e2 6.0709957e1,1.4129562e2 6.1182358e1,1.4102902e2 6.17093e1,1.4090031e2 6.2219105e1,1.4091376e2 6.2708645e1,1.410567e2 6.313123e1,1.4130841e2 6.347892e1,1.4165633e2 6.370799e1,1.4204146e2 6.382358e1,1.4234071e2 6.3884586e1,1.4265567e2 6.3875267e1,1.4316492e2 6.373662e1,1.4365501e2 6.370799e1,1.437187e2 6.3541115e1,1.4400772e2 6.332813e1,1.4426465e2 6.3075096e1,1.4448227e2 6.2789158e1,1.4465436e2 6.2708645e1,1.4469185e2 6.2219105e1,1.448348e2 6.17093e1,1.4484824e2 " /><polyline points="9.768569e1,1.4471588e2 9.754796e1,1.4465436e2 9.7053856e1,1.4430896e2 9.668635e1,1.4383105e2 9.660045e1,1.4365501e2 9.6461815e1,1.4316492e2 9.6452484e1,1.4265567e2 9.653305e1,1.4227502e2 9.668635e1,1.4191742e2 9.685815e1,1.4165633e2 9.723049e1,1.4128954e2 9.768569e1,1.4103268e2 9.817726e1,1.409054e2 9.8685036e1,1.4090704e2 9.9215065e1,1.4105406e2 9.968438e1,1.4134093e2 9.999142e1,1.4165633e2 1.0026344e2,1.4212791e2 1.0039708e2,1.4265567e2 1.0038775e2,1.4316492e2 1.00249115e2,1.4365501e2 1.00012e2,1.4406528e2 9.968438e1,1.4440762e2 9.930169e1,1.4465436e2 9.9001015e1,1.4477315e2 9.8685036e1,1.448415e2 9.817726e1,1.4484315e2 9.768569e1,1.4471588e2 " /><polyline points="1.0767914e2,1.448401e2 1.0736854e2,1.4477162e2 1.0707288e2,1.4465436e2 1.06679794e2,1.4439903e2 1.0635853e2,1.4405988e2 1.0612545e2,1.4365501e2 1.0598682e2,1.4316492e2 1.05977486e2,1.4265567e2 1.0611113e2,1.4212791e2 1.0638315e2,1.4165633e2 1.06679794e2,1.4134952e2 1.0714851e2,1.4105887e2 1.0767914e2,1.4090845e2 1.08186554e2,1.4090408e2 1.0867848e2,1.4102853e2 1.091396e2,1.4128616e2 1.0951642e2,1.4165633e2 1.09677826e2,1.4189877e2 1.0983827e2,1.4226486e2 1.0992208e2,1.4265567e2 1.0991275e2,1.4316492e2 1.0977412e2,1.4365501e2 1.09677826e2,1.438497e2 1.0931297e2,1.4431631e2 1.0882661e2,1.4465436e2 1.0867848e2,1.4472002e2 1.08186554e2,1.4484448e2 1.0767914e2,1.448401e2 " /><polyline points="1.3765945e2,1.4333871e2 1.374873e2,1.4322513e2 1.3748729e2,1.4265567e2 1.3748729e2,1.3266223e2 1.3748727e2,1.3198372e2 1.3765945e2,1.3181812e2 1.386588e2,1.3183302e2 1.476529e2,1.3183302e2 1.4865224e2,1.3182323e2 1.4898561e2,1.3183302e2 1.4901228e2,1.3216547e2 1.4901228e2,1.4309416e2 1.489287e2,1.4335803e2 1.4865224e2,1.4334447e2 1.476529e2,1.4335803e2 1.386588e2,1.4335803e2 1.3765945e2,1.4333871e2 " /><polyline points="5.982656e0,1.2666616e2 6.745363e0,1.2694592e2 7.744707e0,1.272079e2 8.744051e0,1.2732652e2 9.743395e0,1.2734927e2 1.22669304e2,1.2734927e2 1.2366865e2,1.2733099e2 1.2382478e2,1.2721277e2 1.2382478e2,1.0867796e2 1.2381535e2,1.0829927e2 1.2366865e2,1.0827748e2 1.22669304e2,1.0829928e2 9.743395e0,1.0829928e2 8.744051e0,1.0833133e2 7.744707e0,1.0846709e2 6.8657374e0,1.0867796e2 6.745363e0,1.0871382e2 5.7460194e0,1.0908091e2 4.7466736e0,1.0958443e2 4.5899634e0,1.0967731e2 3.74733e0,1.10251526e2 3.2289932e0,1.1067665e2 2.747986e0,1.1113095e2 2.2498841e0,1.11675995e2 1.7486421e0,1.1232362e2 1.5114218e0,1.1267534e2 9.511967e-1,1.1367468e2 7.492973e-1,1.1412071e2 5.264042e-1,1.1467403e2 2.5297546e-1,1.1567337e2 4.1481253e-2,1.16672714e2 4.5079802e-4,1.17672066e2 2.1343134e-2,1.1867141e2 2.0373611e-1,1.1967075e2 2.9497656e-1,1.20177185e2 4.4277287e-1,1.206701e2 7.492973e-1,1.2152784e2 8.104113e-1,1.2166944e2 1.3237888e0,1.22668785e2 1.7486421e0,1.2332493e2 2.0031497e0,1.2366813e2 2.747986e0,1.245176e2 2.899358e0,1.2466747e2 3.74733e0,1.2539703e2 4.119214e0,1.2566682e2 4.7466736e0,1.2606413e2 5.7460194e0,1.2656765e2 5.982656e0,1.2666616e2 " /><polyline points="1.5739462e1,1.1980403e2 1.5137944e1,1.1967075e2 1.4740118e1,1.1945224e2 1.4359076e1,1.1910504e2 1.4080321e1,1.1867141e2 1.3923238e1,1.18183716e2 1.3896259e1,1.17672066e2 1.400933e1,1.1714767e2 1.425873e1,1.16672714e2 1.44789505e1,1.16413826e2 1.4740118e1,1.1619631e2 1.5215879e1,1.1595249e2 1.5739462e1,1.1584453e2 1.6251743e1,1.1587604e2 1.6738806e1,1.1603788e2 1.7154806e1,1.1630794e2 1.7490847e1,1.16672714e2 1.7738152e1,1.1715409e2 1.7853317e1,1.17672066e2 1.7839819e1,1.1810068e2 1.7738152e1,1.1851727e2 1.7669256e1,1.1867141e2 1.7500284e1,1.1896248e2 1.7284554e1,1.1922081e2 1.702827e1,1.19438965e2 1.6738806e1,1.1961067e2 1.6593996e1,1.1967075e2 1.6174297e1,1.1978592e2 1.5739462e1,1.1980403e2 " /><polyline points="2.4733559e1,1.1969347e2 2.4692753e1,1.1967075e2 2.4407688e1,1.1954285e2 2.4150229e1,1.19365814e2 2.3734215e1,1.1890295e2 2.3605322e1,1.1867141e2 2.3448238e1,1.18183716e2 2.3421259e1,1.17672066e2 2.351977e1,1.1718924e2 2.3734215e1,1.16745575e2 2.378373e1,1.16672714e2 2.4203562e1,1.16241e2 2.4733559e1,1.15955086e2 2.522764e1,1.1584738e2 2.5732903e1,1.1586806e2 2.6267267e1,1.1603956e2 2.673225e1,1.16353806e2 2.7015846e1,1.16672714e2 2.7265245e1,1.1714767e2 2.7378317e1,1.17672066e2 2.7351336e1,1.18183716e2 2.7194256e1,1.1867141e2 2.6994015e1,1.19005875e2 2.673225e1,1.19294754e2 2.6451256e1,1.1950718e2 2.613928e1,1.1967075e2 2.5732903e1,1.19780495e2 2.522764e1,1.1980118e2 2.4733559e1,1.1969347e2 " /><polyline points="6.17093e1,1.1979825e2 6.1184704e1,1.1967075e2 6.0709957e1,1.1940293e2 6.0369896e1,1.19072784e2 6.011782e1,1.1867141e2 5.9960743e1,1.18183716e2 5.993376e1,1.17672066e2 6.0046833e1,1.1714767e2 6.029623e1,1.16672714e2 6.0709957e1,1.1624562e2 6.1182358e1,1.1597903e2 6.17093e1,1.1585031e2 6.2219105e1,1.1586377e2 6.2708645e1,1.1600671e2 6.316362e1,1.1628417e2 6.3528347e1,1.16672714e2 6.370799e1,1.169816e2 6.383111e1,1.17318436e2 6.3890816e1,1.17672066e2 6.3864098e1,1.181823e2 6.370799e1,1.1866879e2 6.3706757e1,1.1867141e2 6.3527027e1,1.1897769e2 6.329559e1,1.19247025e2 6.301985e1,1.194708e2 6.2708645e1,1.19641846e2 6.263911e1,1.1967075e2 6.218185e1,1.1979025e2 6.17093e1,1.1979825e2 " /><polyline points="9.8685036e1,1.1979151e2 9.818381e1,1.1979397e2 9.769796e1,1.1967075e2 9.768569e1,1.1966588e2 9.738224e1,1.19512726e2 9.710938e1,1.1931004e2 9.687512e1,1.1906375e2 9.668635e1,1.1878108e2 9.663032e1,1.1867141e2 9.647323e1,1.18183716e2 9.644625e1,1.17672066e2 9.652325e1,1.172569e2 9.668635e1,1.1686742e2 9.680872e1,1.16672714e2 9.71977e1,1.1626478e2 9.768569e1,1.1598268e2 9.817726e1,1.158554e2 9.8685036e1,1.1585704e2 9.9215065e1,1.1600406e2 9.968438e1,1.1629093e2 1.0004084e2,1.16672714e2 1.00290245e2,1.1714766e2 1.0040331e2,1.17672066e2 1.00376335e2,1.18183716e2 1.00219246e2,1.1867141e2 9.998988e1,1.1904419e2 9.968438e1,1.1935763e2 9.9423615e1,1.1953894e2 9.913466e1,1.1967075e2 9.8685036e1,1.1979151e2 " /><polyline points="1.0767914e2,1.19790115e2 1.07235794e2,1.1967075e2 1.06943504e2,1.19534584e2 1.06679794e2,1.1934903e2 1.0638055e2,1.19038864e2 1.0615532e2,1.1867141e2 1.0599823e2,1.18183716e2 1.0597125e2,1.17672066e2 1.0608432e2,1.1714766e2 1.06333725e2,1.16672714e2 1.06679794e2,1.1629953e2 1.0714851e2,1.16008865e2 1.0767914e2,1.15858444e2 1.08186554e2,1.1585408e2 1.0867848e2,1.15978546e2 1.0917246e2,1.1626133e2 1.0956584e2,1.16672714e2 1.09677826e2,1.1684877e2 1.09848236e2,1.1724668e2 1.09928314e2,1.17672066e2 1.0990134e2,1.18183716e2 1.0974425e2,1.1867141e2 1.09677826e2,1.1879972e2 1.0948763e2,1.19078384e2 1.0925296e2,1.1932077e2 1.0898062e2,1.195199e2 1.0867848e2,1.1967001e2 1.08676605e2,1.1967075e2 1.0818555e2,1.197946e2 1.0767914e2,1.19790115e2 " /><polyline points="1.382749e2,1.1367468e2 1.386588e2,1.13785934e2 1.3965814e2,1.1403101e2 1.4065749e2,1.1421388e2 1.4165683e2,1.1433654e2 1.4265617e2,1.1440027e2 1.4365552e2,1.1440574e2 1.4465486e2,1.1435299e2 1.456542e2,1.14241486e2 1.4665355e2,1.1407007e2 1.476529e2,1.13836876e2 1.4822467e2,1.1367468e2 1.4865224e2,1.1353926e2 1.496516e2,1.131736e2 1.5065094e2,1.1273511e2 1.5077492e2,1.1267534e2 1.5165028e2,1.1221739e2 1.5225461e2,1.1186238e2 1.5239978e2,1.11675995e2 1.5239978e2,8.7691734e1 1.523484e2,8.740927e1 1.5165028e2,8.699617e1 1.5108353e2,8.669239e1 1.5065094e2,8.647845e1 1.496516e2,8.6039955e1 1.4870851e2,8.569305e1 1.4865224e2,8.56743e1 1.476529e2,8.5376686e1 1.4665355e2,8.5143486e1 1.456542e2,8.497207e1 1.4465486e2,8.4860565e1 1.4365552e2,8.480782e1 1.4265617e2,8.4813286e1 1.4165683e2,8.4877014e1 1.4065749e2,8.499968e1 1.3965814e2,8.518255e1 1.386588e2,8.542763e1 1.3779106e2,8.569305e1 1.3765945e2,8.5737724e1 1.3666011e2,8.611666e1 1.3566077e2,8.65695e1 1.3541605e2,8.669239e1 1.3466142e2,8.7103e1 1.340998e2,8.745249e1 1.340998e2,1.11675995e2 1.341965e2,1.1183244e2 1.3466142e2,1.12110565e2 1.3566077e2,1.1264406e2 1.3572466e2,1.1267534e2 1.3666011e2,1.1309689e2 1.3765945e2,1.1347583e2 1.382749e2,1.1367468e2 " /><polyline points="1.3765945e2,1.07750534e2 1.3754875e2,1.07750534e2 1.374646e2,1.0767862e2 1.3748729e2,1.06679276e2 1.3748729e2,9.668583e1 1.3748694e2,9.6239975e1 1.3765945e2,9.6207214e1 1.386588e2,9.6225525e1 1.4884335e2,9.6225525e1 1.490123e2,9.631485e1 1.4901228e2,9.668583e1 1.4901228e2,1.06679276e2 1.49034e2,1.0767862e2 1.4895598e2,1.07750534e2 1.3765945e2,1.07750534e2 " /><polyline points="6.15309e0,1.0168255e2 6.745363e0,1.0189211e2 7.744707e0,1.0213147e2 8.744051e0,1.0227205e2 9.743395e0,1.0229928e2 1.22669304e2,1.0229928e2 1.2366865e2,1.0228267e2 1.2382479e2,1.0218636e2 1.2382478e2,1.0168255e2 1.2382478e2,8.369435e1 1.2382479e2,8.327436e1 1.2366865e2,8.323105e1 1.22669304e2,8.324928e1 9.743395e0,8.324928e1 8.744051e0,8.3281334e1 7.744707e0,8.341709e1 6.745363e0,8.3663826e1 6.6471977e0,8.369435e1 5.7460194e0,8.403091e1 4.7466736e0,8.4534424e1 4.481992e0,8.4693695e1 3.74733e0,8.520152e1 3.1544058e0,8.569305e1 2.747986e0,8.6080956e1 2.1942863e0,8.669239e1 1.7486421e0,8.727363e1 1.4691466e0,8.7691734e1 9.193773e-1,8.869108e1 7.492973e-1,8.907072e1 5.134075e-1,8.969042e1 2.4775346e-1,9.0689766e1 3.639882e-2,9.168911e1 0.0e0,9.268845e1 2.5073633e-2,9.36878e1 2.1416664e-1,9.468714e1 4.5277762e-1,9.5686485e1 7.492973e-1,9.6477844e1 8.400093e-1,9.668583e1 1.3633708e0,9.768517e1 1.7486421e0,9.827493e1 2.055204e0,9.868452e1 2.747986e0,9.9467606e1 2.9686234e0,9.968386e1 3.74733e0,1.0034703e2 4.2168207e0,1.00683205e2 4.7466736e0,1.0101413e2 5.7460194e0,1.0151765e2 6.15309e0,1.0168255e2 " /><polyline points="1.5739462e1,9.475403e1 1.5326407e1,9.468714e1 1.4740118e1,9.4402245e1 1.4383247e1,9.4083115e1 1.4113191e1,9.36878e1 1.3937193e1,9.3202614e1 1.389227e1,9.268845e1 1.3985568e1,9.216716e1 1.4213418e1,9.168911e1 1.4450668e1,9.139238e1 1.4740118e1,9.114632e1 1.5215878e1,9.090249e1 1.5739462e1,9.0794525e1 1.6251743e1,9.0826035e1 1.6738806e1,9.0987885e1 1.7185257e1,9.128417e1 1.753616e1,9.168911e1 1.7738152e1,9.209509e1 1.7857306e1,9.268845e1 1.7836613e1,9.3072586e1 1.7738152e1,9.344445e1 1.7636387e1,9.36878e1 1.7467783e1,9.395754e1 1.7258242e1,9.4196884e1 1.701315e1,9.439966e1 1.6738806e1,9.456068e1 1.6383577e1,9.468714e1 1.606453e1,9.4749565e1 1.5739462e1,9.475403e1 " /><polyline points="2.5732903e1,9.47305e1 2.5307434e1,9.47565e1 2.488685e1,9.468714e1 2.4733559e1,9.464347e1 2.443832e1,9.451017e1 2.4168705e1,9.433061e1 2.3931892e1,9.410958e1 2.3734215e1,9.385295e1 2.363819e1,9.36878e1 2.3462193e1,9.3202614e1 2.341727e1,9.268845e1 2.350939e1,9.217084e1 2.3734215e1,9.169557e1 2.3738417e1,9.168911e1 2.3935802e1,9.143469e1 2.417174e1,9.1215546e1 2.4440012e1,9.1037445e1 2.4733559e1,9.090509e1 2.522764e1,9.079738e1 2.5732903e1,9.081806e1 2.6267271e1,9.098956e1 2.673225e1,9.13038e1 2.706116e1,9.168911e1 2.728901e1,9.216716e1 2.7382305e1,9.268845e1 2.7337383e1,9.3202614e1 2.7161386e1,9.36878e1 2.6971682e1,9.398543e1 2.673225e1,9.424475e1 2.6366474e1,9.450728e1 2.5953726e1,9.468714e1 2.5732903e1,9.47305e1 " /><polyline points="6.17093e1,9.4748245e1 6.137495e1,9.468714e1 6.102722e1,9.455035e1 6.0709957e1,9.4352936e1 6.0393467e1,9.405135e1 6.0150692e1,9.36878e1 5.997469e1,9.3202614e1 5.992977e1,9.268845e1 6.002307e1,9.216716e1 6.025092e1,9.168911e1 6.045933e1,9.142274e1 6.0709957e1,9.1195625e1 6.1182358e1,9.092903e1 6.17093e1,9.080031e1 6.2219105e1,9.081377e1 6.2708645e1,9.095671e1 6.3194553e1,9.125984e1 6.3573658e1,9.168911e1 6.370799e1,9.192978e1 6.3839115e1,9.229983e1 6.3894806e1,9.268845e1 6.385783e1,9.316496e1 6.370799e1,9.361879e1 6.3673885e1,9.36878e1 6.3494106e1,9.397244e1 6.326879e1,9.4222595e1 6.3004436e1,9.443107e1 6.2708645e1,9.459185e1 6.2450466e1,9.468714e1 6.2082657e1,9.475133e1 6.17093e1,9.4748245e1 " /><polyline points="9.8685036e1,9.4741516e1 9.828602e1,9.475379e1 9.7892426e1,9.468714e1 9.768569e1,9.4615875e1 9.738225e1,9.446273e1 9.71094e1,9.426004e1 9.687513e1,9.401377e1 9.668635e1,9.373111e1 9.6663185e1,9.36878e1 9.648719e1,9.320261e1 9.644226e1,9.268845e1 9.651401e1,9.2238846e1 9.668635e1,9.181741e1 9.676341e1,9.168911e1 9.716637e1,9.123996e1 9.768569e1,9.093268e1 9.817726e1,9.0805405e1 9.8685036e1,9.0807045e1 9.9215065e1,9.0954056e1 9.968438e1,9.124094e1 1.0008615e2,9.168911e1 1.00314e2,9.216716e1 1.004073e2,9.268845e1 1.0036237e2,9.320261e1 1.0018638e2,9.36878e1 9.996684e1,9.402319e1 9.968438e1,9.430763e1 9.933354e1,9.453833e1 9.89409e1,9.468714e1 9.8685036e1,9.4741516e1 " /><polyline points="1.0767914e2,9.474011e1 1.0742825e2,9.468714e1 1.07032776e2,9.4534065e1 1.06679794e2,9.429903e1 1.0640349e2,9.4017944e1 1.0618819e2,9.36878e1 1.06012184e2,9.3202614e1 1.0596726e2,9.268845e1 1.0606056e2,9.216716e1 1.06288414e2,9.168911e1 1.06679794e2,9.124953e1 1.0714851e2,9.095886e1 1.0767914e2,9.080844e1 1.08186554e2,9.080408e1 1.0867848e2,9.092854e1 1.09203865e2,9.123642e1 1.0961115e2,9.168911e1 1.09677826e2,9.179877e1 1.0985765e2,9.222858e1 1.09932304e2,9.268845e1 1.0988738e2,9.3202614e1 1.0971138e2,9.36878e1 1.09677826e2,9.374975e1 1.09487625e2,9.402839e1 1.0925295e2,9.427077e1 1.0898061e2,9.446991e1 1.0867848e2,9.462001e1 1.0847462e2,9.468714e1 1.0807959e2,9.47544e1 1.0767914e2,9.474011e1 " /><polyline points="1.4134943e2,7.869763e1 1.4165683e2,7.872904e1 1.4265617e2,7.879277e1 1.4365552e2,7.879824e1 1.4465486e2,7.874549e1 1.4515015e2,7.869763e1 1.456542e2,7.8633995e1 1.4665355e2,7.846257e1 1.476529e2,7.822938e1 1.4865224e2,7.7931755e1 1.4931192e2,7.769829e1 1.496516e2,7.75661e1 1.5065094e2,7.712761e1 1.5148935e2,7.6698944e1 1.5165028e2,7.660989e1 1.5219276e2,7.6292854e1 1.5239978e2,7.603236e1 1.5239978e2,5.2714684e1 1.523998e2,5.1917946e1 1.5220837e2,5.171534e1 1.5165028e2,5.138867e1 1.5065094e2,5.087095e1 1.5031708e2,5.0715996e1 1.496516e2,5.0432457e1 1.4865224e2,5.0066803e1 1.476529e2,4.9769188e1 1.474497e2,4.9716652e1 1.4665355e2,4.9535988e1 1.456542e2,4.936457e1 1.4465486e2,4.9253067e1 1.4365552e2,4.9200325e1 1.4265617e2,4.9205788e1 1.4165683e2,4.9269516e1 1.4065749e2,4.939218e1 1.3965814e2,4.957505e1 1.3904987e2,4.9716652e1 1.386588e2,4.982013e1 1.3765945e2,5.0130226e1 1.3666011e2,5.0509163e1 1.361825e2,5.0715996e1 1.3566077e2,5.0962006e1 1.3466142e2,5.14955e1 1.3429144e2,5.171534e1 1.3409978e2,5.1917824e1 1.340998e2,5.2714684e1 1.340998e2,7.56996e1 1.3409978e2,7.597307e1 1.3420024e2,7.622742e1 1.3466142e2,7.650307e1 1.3501024e2,7.6698944e1 1.3566077e2,7.703656e1 1.3666011e2,7.74894e1 1.3718765e2,7.769829e1 1.3765945e2,7.786833e1 1.386588e2,7.817844e1 1.3965814e2,7.8423515e1 1.4065749e2,7.8606384e1 1.4134943e2,7.869763e1 " /><polyline points="1.6027407e1,7.470026e1 1.6738806e1,7.473349e1 1.7738152e1,7.473036e1 1.8342121e1,7.470026e1 1.8737495e1,7.466898e1 1.973684e1,7.454873e1 2.0736183e1,7.436832e1 2.1735527e1,7.412579e1 2.273487e1,7.3818375e1 2.3067839e1,7.370091e1 2.3734215e1,7.34423e1 2.4733559e1,7.299255e1 2.5301666e1,7.270157e1 2.5732903e1,7.246246e1 2.673225e1,7.1843094e1 2.6939774e1,7.1702225e1 2.7731594e1,7.112222e1 2.8249977e1,7.070288e1 2.8730938e1,7.0282616e1 2.9338785e1,6.970354e1 2.9730282e1,6.929884e1 3.026162e1,6.870419e1 3.0729626e1,6.8130745e1 3.1051657e1,6.770485e1 3.172897e1,6.670802e1 3.173056e1,6.67055e1 3.231328e1,6.5706154e1 3.2728313e1,6.488388e1 3.2810585e1,6.470681e1 3.3230427e1,6.3707466e1 3.3578754e1,6.2708122e1 3.3727657e1,6.220806e1 3.386005e1,6.170878e1 3.4077663e1,6.0709435e1 3.423403e1,5.971009e1 3.4330833e1,5.8710747e1 3.436907e1,5.7711403e1 3.4349136e1,5.671206e1 3.4270832e1,5.5712715e1 3.4133343e1,5.471337e1 3.393521e1,5.3714027e1 3.3727657e1,5.2900497e1 3.3674255e1,5.2714684e1 3.3347427e1,5.171534e1 3.2950638e1,5.0715996e1 3.2728313e1,5.0224678e1 3.247844e1,4.9716652e1 3.1923582e1,4.87173e1 3.172897e1,4.8400536e1 3.1276312e1,4.7717957e1 3.0729626e1,4.6977814e1 3.0523176e1,4.6718613e1 2.9730282e1,4.5809715e1 2.9644997e1,4.571927e1 2.8730938e1,4.4825943e1 2.8612984e1,4.4719925e1 2.7731594e1,4.3986336e1 2.7380526e1,4.372058e1 2.673225e1,4.3265472e1 2.5862644e1,4.2721237e1 2.5732903e1,4.2646095e1 2.4733559e1,4.2116005e1 2.3867594e1,4.1721893e1 2.3734215e1,4.166626e1 2.273487e1,4.1290184e1 2.1735527e1,4.0982765e1 2.0736183e1,4.0740242e1 2.0651371e1,4.072255e1 1.973684e1,4.0559837e1 1.8737495e1,4.0439568e1 1.7738152e1,4.0378197e1 1.6738806e1,4.037507e1 1.5739462e1,4.043016e1 1.4740118e1,4.0544052e1 1.3740772e1,4.071792e1 1.3718203e1,4.072255e1 1.2741428e1,4.095365e1 1.17420845e1,4.1253937e1 1.0742741e1,4.1622414e1 1.0501982e1,4.1721893e1 9.743395e0,4.2063965e1 8.744051e0,4.2585037e1 8.506932e0,4.2721237e1 7.744707e0,4.3194305e1 6.98905e0,4.372058e1 6.745363e0,4.390354e1 5.756591e0,4.4719925e1 5.7460194e0,4.4729355e1 4.7466736e0,4.5696053e1 4.7245784e0,4.571927e1 3.8463998e0,4.6718613e1 3.74733e0,4.684172e1 3.093264e0,4.7717957e1 2.747986e0,4.823211e1 2.4459925e0,4.87173e1 1.8911387e0,4.9716652e1 1.7486421e0,5.000116e1 1.4189371e0,5.0715996e1 1.0221483e0,5.171534e1 7.492973e-1,5.253443e1 6.9532305e-1,5.2714684e1 4.3436664e-1,5.3714027e1 2.3623429e-1,5.471337e1 9.874557e-2,5.5712715e1 2.0438597e-2,5.671206e1 5.0802575e-4,5.7711403e1 3.8744945e-2,5.8710747e1 1.3554451e-1,5.971009e1 2.919135e-1,6.0709435e1 5.095251e-1,6.170878e1 7.492973e-1,6.2574127e1 7.9082114e-1,6.2708122e1 1.1391485e0,6.3707466e1 1.5589901e0,6.470681e1 1.7486421e0,6.51074e1 2.0562978e0,6.5706154e1 2.639015e0,6.67055e1 2.747986e0,6.687646e1 3.317919e0,6.770485e1 3.74733e0,6.826684e1 4.1079564e0,6.870419e1 4.7466736e0,6.9412506e1 5.03079e0,6.970354e1 5.7460194e0,7.03792e1 6.1196003e0,7.070288e1 6.745363e0,7.120501e1 7.4298034e0,7.1702225e1 7.744707e0,7.191426e1 8.744051e0,7.252351e1 9.06791e0,7.270157e1 9.743395e0,7.304459e1 1.0742741e1,7.3486145e1 1.1301733e1,7.370091e1 1.17420845e1,7.385462e1 1.2741428e1,7.415491e1 1.3740772e1,7.439064e1 1.4740118e1,7.456451e1 1.5739462e1,7.467839e1 1.6027407e1,7.470026e1 " /><polyline points="5.639762e1,7.470026e1 5.671258e1,7.471863e1 5.7711926e1,7.4738556e1 5.8711903e1,7.470026e1 5.9710613e1,7.460352e1 6.0709957e1,7.444715e1 6.17093e1,7.422954e1 6.2708645e1,7.394824e1 6.3437843e1,7.370091e1 6.370799e1,7.3599915e1 6.470733e1,7.318007e1 6.567166e1,7.270157e1 6.570667e1,7.268276e1 6.670602e1,7.210004e1 6.730977e1,7.1702225e1 6.770537e1,7.142114e1 6.861997e1,7.070288e1 6.870471e1,7.06311e1 6.9704056e1,6.970827e1 6.9708786e1,6.970354e1 7.063162e1,6.870419e1 7.07034e1,6.861946e1 7.142165e1,6.770485e1 7.170274e1,6.730926e1 7.2100555e1,6.67055e1 7.268327e1,6.5706154e1 7.270209e1,6.567114e1 7.318058e1,6.470681e1 7.3600426e1,6.3707466e1 7.370143e1,6.343731e1 7.394875e1,6.2708122e1 7.423005e1,6.170878e1 7.444766e1,6.0709435e1 7.4604034e1,5.971009e1 7.4700775e1,5.871148e1 7.470083e1,5.8710747e1 7.473907e1,5.7711403e1 7.471913e1,5.671206e1 7.4700775e1,5.6397217e1 7.464083e1,5.5712715e1 7.450334e1,5.471337e1 7.430521e1,5.3714027e1 7.404425e1,5.2714684e1 7.371742e1,5.171534e1 7.370143e1,5.167125e1 7.332063e1,5.0715996e1 7.2848434e1,4.9716652e1 7.270209e1,4.943741e1 7.229358e1,4.87173e1 7.170274e1,4.779931e1 7.164631e1,4.7717957e1 7.089317e1,4.6718613e1 7.07034e1,4.6489098e1 7.0015e1,4.571927e1 6.9704056e1,4.540029e1 6.898298e1,4.4719925e1 6.870471e1,4.4477455e1 6.775053e1,4.372058e1 6.770537e1,4.3687416e1 6.670602e1,4.3008522e1 6.623264e1,4.2721237e1 6.570667e1,4.2425804e1 6.470733e1,4.192849e1 6.4237595e1,4.1721893e1 6.370799e1,4.1508644e1 6.2708645e1,4.1160316e1 6.17093e1,4.087902e1 6.1021374e1,4.072255e1 6.0709957e1,4.0661407e1 5.9710613e1,4.0505035e1 5.871127e1,4.0408234e1 5.7711926e1,4.0369995e1 5.671258e1,4.038993e1 5.5713238e1,4.046823e1 5.4713894e1,4.060573e1 5.4088207e1,4.072255e1 5.371455e1,4.080385e1 5.2715206e1,4.1064804e1 5.1715862e1,4.139164e1 5.0871986e1,4.1721893e1 5.071652e1,4.178843e1 4.9717175e1,4.226062e1 4.8876934e1,4.2721237e1 4.8717823e1,4.2815483e1 4.771848e1,4.3462753e1 4.735905e1,4.372058e1 4.6719135e1,4.421589e1 4.6126595e1,4.4719925e1 4.571979e1,4.5094063e1 4.509458e1,4.571927e1 4.4720448e1,4.6126076e1 4.4216404e1,4.6718613e1 4.3721104e1,4.735853e1 4.346327e1,4.7717957e1 4.2815998e1,4.87173e1 4.272176e1,4.887641e1 4.2261143e1,4.9716652e1 4.178894e1,5.0715996e1 4.1722416e1,5.087146e1 4.139215e1,5.171534e1 4.1065327e1,5.2714684e1 4.080437e1,5.3714027e1 4.0723072e1,5.408766e1 4.060624e1,5.471337e1 4.046875e1,5.5712715e1 4.039044e1,5.671206e1 4.037051e1,5.7711403e1 4.040875e1,5.8710747e1 4.0505547e1,5.971009e1 4.0661915e1,6.0709435e1 4.0723072e1,6.1020897e1 4.0879528e1,6.170878e1 4.1160824e1,6.2708122e1 4.150915e1,6.3707466e1 4.1722416e1,6.42371e1 4.1928993e1,6.470681e1 4.24263e1,6.5706154e1 4.272176e1,6.6232155e1 4.3009018e1,6.67055e1 4.3687923e1,6.770485e1 4.3721104e1,6.775003e1 4.447796e1,6.870419e1 4.4720448e1,6.898248e1 4.5400795e1,6.970354e1 4.571979e1,7.0014496e1 4.64896e1,7.070288e1 4.6719135e1,7.089267e1 4.771848e1,7.1645805e1 4.7799805e1,7.1702225e1 4.8717823e1,7.2293076e1 4.9437912e1,7.270157e1 4.9717175e1,7.284794e1 5.071652e1,7.332014e1 5.1671738e1,7.370091e1 5.1715862e1,7.371693e1 5.2715206e1,7.404375e1 5.371455e1,7.43047e1 5.4713894e1,7.450283e1 5.5713238e1,7.464032e1 5.639762e1,7.470026e1 " /><polyline points="9.676739e1,7.470026e1 9.768569e1,7.473761e1 9.8685036e1,7.472245e1 9.9082e1,7.470026e1 9.968438e1,7.464896e1 1.0068372e2,7.4516365e1 1.0168307e2,7.432328e1 1.0268241e2,7.406758e1 1.0368176e2,7.37463e1 1.0380783e2,7.370091e1 1.0468111e2,7.335542e1 1.0568045e2,7.2889656e1 1.0604166e2,7.270157e1 1.06679794e2,7.23419e1 1.0767976e2,7.1702225e1 1.0867848e2,7.095883e1 1.0898997e2,7.070288e1 1.09677826e2,7.009183e1 1.1007878e2,6.970354e1 1.1067717e2,6.907386e1 1.1100162e2,6.870419e1 1.1167651e2,6.78603e1 1.1179165e2,6.770485e1 1.1247055e2,6.67055e1 1.1267586e2,6.6370735e1 1.1305327e2,6.5706154e1 1.13550575e2,6.470681e1 1.1367521e2,6.442802e1 1.1397042e2,6.3707466e1 1.1431875e2,6.2708122e1 1.14600044e2,6.170878e1 1.1467455e2,6.139737e1 1.1481766e2,6.0709435e1 1.1497403e2,5.971009e1 1.1507082e2,5.8710747e1 1.1510906e2,5.7711403e1 1.1508913e2,5.671206e1 1.15010826e2,5.5712715e1 1.1487334e2,5.471337e1 1.146752e2,5.3714027e1 1.1467455e2,5.371119e1 1.14414246e2,5.2714684e1 1.1408742e2,5.171534e1 1.1369063e2,5.0715996e1 1.1367521e2,5.0680542e1 1.1321843e2,4.9716652e1 1.1267586e2,4.8737823e1 1.12663574e2,4.87173e1 1.12016304e2,4.7717957e1 1.1167651e2,4.724826e1 1.1126317e2,4.6718613e1 1.1067717e2,4.60347e1 1.10384995e2,4.571927e1 1.09677826e2,4.5016724e1 1.0935298e2,4.4719925e1 1.0867848e2,4.414972e1 1.0812052e2,4.372058e1 1.0767914e2,4.34059e1 1.06679794e2,4.2766655e1 1.0660264e2,4.2721237e1 1.0568045e2,4.2218903e1 1.0468111e2,4.1753128e1 1.0460758e2,4.1721893e1 1.0368176e2,4.1362267e1 1.0268241e2,4.1040977e1 1.0168307e2,4.078528e1 1.01391365e2,4.072255e1 1.0068372e2,4.0592194e1 9.968438e1,4.0459595e1 9.8685036e1,4.038611e1 9.768569e1,4.037094e1 9.668635e1,4.0413963e1 9.5687004e1,4.0515602e1 9.468766e1,4.0676918e1 9.44582e1,4.072255e1 9.368832e1,4.089965e1 9.268897e1,4.118631e1 9.168963e1,4.1540314e1 9.124198e1,4.1721893e1 9.0690285e1,4.1966263e1 8.969094e1,4.2470245e1 8.9246925e1,4.2721237e1 8.86916e1,4.3060402e1 8.772904e1,4.372058e1 8.769225e1,4.374778e1 8.669291e1,4.4547775e1 8.649659e1,4.4719925e1 8.5693565e1,4.5482758e1 8.546457e1,4.571927e1 8.4694214e1,4.6587227e1 8.4586395e1,4.6718613e1 8.383326e1,4.7717957e1 8.369487e1,4.791925e1 8.318599e1,4.87173e1 8.2695526e1,4.959224e1 8.2631134e1,4.9716652e1 8.2158936e1,5.0715996e1 8.1762146e1,5.171534e1 8.169618e1,5.1901253e1 8.143532e1,5.2714684e1 8.117436e1,5.3714027e1 8.097623e1,5.471337e1 8.083874e1,5.5712715e1 8.076044e1,5.671206e1 8.07405e1,5.7711403e1 8.077874e1,5.8710747e1 8.0875534e1,5.971009e1 8.1031906e1,6.0709435e1 8.124952e1,6.170878e1 8.1530815e1,6.2708122e1 8.169618e1,6.3207306e1 8.187914e1,6.3707466e1 8.229899e1,6.470681e1 8.2695526e1,6.551631e1 8.2796295e1,6.5706154e1 8.337901e1,6.67055e1 8.369487e1,6.718931e1 8.4057915e1,6.770485e1 8.4694214e1,6.852133e1 8.4847946e1,6.870419e1 8.5693565e1,6.962579e1 8.577078e1,6.970354e1 8.669291e1,7.056078e1 8.68596e1,7.070288e1 8.769225e1,7.136078e1 8.81698e1,7.1702225e1 8.86916e1,7.204815e1 8.969094e1,7.263831e1 8.980791e1,7.270157e1 9.0690285e1,7.3142296e1 9.168963e1,7.3568245e1 9.204173e1,7.370091e1 9.268897e1,7.392225e1 9.368832e1,7.420891e1 9.468766e1,7.443164e1 9.5687004e1,7.459296e1 9.668635e1,7.4694595e1 9.676739e1,7.470026e1 " /><polyline points="1.3765945e2,7.212866e1 1.3748729e2,7.2122475e1 1.3748729e2,6.170878e1 1.3750377e2,6.0709435e1 1.3748727e2,6.0640305e1 1.3755478e2,6.0618034e1 1.4894218e2,6.0618034e1 1.4899582e2,6.0709435e1 1.4901228e2,6.170878e1 1.4901228e2,7.206966e1 1.4883974e2,7.2143036e1 1.386588e2,7.214303e1 1.3765945e2,7.212866e1 " /><polyline points="1.17420845e1,6.3329666e1 1.150974e1,6.3316795e1 1.1422288e1,6.310116e1 1.1422288e1,5.2714684e1 1.1422289e1,5.18666e1 1.17420845e1,5.1787636e1 1.2741428e1,5.1791786e1 2.1735527e1,5.1791786e1 2.273487e1,5.179799e1 2.2947287e1,5.1962837e1 2.2947287e1,6.32601e1 2.273487e1,6.3302856e1 2.1735527e1,6.331678e1 1.2741428e1,6.331678e1 1.17420845e1,6.3329666e1 " /><polyline points="5.2715206e1,6.331678e1 5.2053032e1,6.3316803e1 5.1792286e1,6.3068314e1 5.179229e1,6.2708122e1 5.179229e1,5.2714684e1 5.1792328e1,5.17918e1 6.3068817e1,5.1791794e1 6.331729e1,5.2052536e1 6.331729e1,6.2708122e1 6.3317287e1,6.3316765e1 5.2715206e1,6.331678e1 " /><polyline points="9.268897e1,6.3316772e1 9.2420074e1,6.3316795e1 9.2162285e1,6.3240334e1 9.2162285e1,5.2714684e1 9.216229e1,5.210295e1 9.233371e1,5.1791786e1 1.0268241e2,5.1791786e1 1.0368176e2,5.183185e1 1.0368728e2,5.2714684e1 1.0368728e2,6.2708122e1 1.0368176e2,6.3276337e1 1.0268241e2,6.331678e1 9.268897e1,6.3316772e1 " /><polyline points="2.747986e0,5.9136765e1 2.501987e0,5.8942665e1 2.291278e0,5.8710747e1 2.0261588e0,5.823889e1 1.9049507e0,5.7711403e1 1.9320253e0,5.719873e1 2.095464e0,5.671206e1 2.3727887e0,5.629879e1 2.747986e0,5.5971794e1 3.0348094e0,5.581537e1 3.3449686e0,5.5712715e1 3.74733e0,5.565628e1 4.275444e0,5.5712715e1 4.7466736e0,5.591015e1 5.182012e0,5.6255478e1 5.4987135e0,5.671206e1 5.6621504e0,5.719873e1 5.6892266e0,5.7711403e1 5.5680194e0,5.823889e1 5.302899e0,5.8710747e1 5.048767e0,5.8981926e1 4.7466736e0,5.9198402e1 4.264565e0,5.9394478e1 3.74733e0,5.945228e1 3.225462e0,5.936483e1 2.747986e0,5.9136765e1 " /><polyline points="2.9730282e1,5.9255913e1 2.9367252e1,5.902134e1 2.9066677e1,5.8710747e1 2.8864784e1,5.8384117e1 2.8730938e1,5.8024216e1 2.868035e1,5.7711403e1 2.8679295e1,5.7410416e1 2.8730938e1,5.7113876e1 2.8870861e1,5.671206e1 2.9029984e1,5.6447243e1 2.9229954e1,5.621173e1 2.946547e1,5.6011772e1 2.9730282e1,5.585264e1 3.013215e1,5.5712715e1 3.0428658e1,5.566107e1 3.0729626e1,5.566214e1 3.104239e1,5.5712715e1 3.140232e1,5.5846573e1 3.172897e1,5.6048485e1 3.203956e1,5.6349045e1 3.2274117e1,5.671206e1 3.2437553e1,5.719873e1 3.2464626e1,5.7711403e1 3.234342e1,5.823889e1 3.2078297e1,5.8710747e1 3.172897e1,5.9060074e1 3.1257118e1,5.932521e1 3.0729626e1,5.944642e1 3.0216957e1,5.9419342e1 2.9730282e1,5.9255913e1 " /><polyline points="4.272176e1,5.8785484e1 4.266128e1,5.8710747e1 4.2396164e1,5.823889e1 4.2274952e1,5.7711403e1 4.2302032e1,5.719873e1 4.2465466e1,5.671206e1 4.272176e1,5.6323074e1 4.316871e1,5.5939316e1 4.371249e1,5.5712715e1 4.3721104e1,5.5708755e1 4.4167107e1,5.5655632e1 4.461262e1,5.5712715e1 4.4720448e1,5.573806e1 4.501204e1,5.585399e1 4.5280537e1,5.601638e1 4.5518635e1,5.6220764e1 4.571979e1,5.64616e1 4.5868717e1,5.671206e1 4.603215e1,5.719873e1 4.605923e1,5.7711403e1 4.59519e1,5.8201828e1 4.571979e1,5.864698e1 4.56729e1,5.8710747e1 4.524823e1,5.911505e1 4.4720448e1,5.9370506e1 4.4222736e1,5.9452095e1 4.3721104e1,5.9399803e1 4.31728e1,5.917176e1 4.272176e1,5.8785484e1 " /><polyline points="6.9704056e1,5.899344e1 6.9436676e1,5.8710747e1 6.917156e1,5.823889e1 6.905035e1,5.7711403e1 6.907742e1,5.719873e1 6.924086e1,5.671206e1 6.944247e1,5.639032e1 6.9704056e1,5.6115128e1 7.006774e1,5.586914e1 7.0478e1,5.5712715e1 7.07034e1,5.567074e1 7.10537e1,5.5658875e1 7.1400055e1,5.5712715e1 7.170274e1,5.5814484e1 7.199374e1,5.597323e1 7.225269e1,5.6180145e1 7.247171e1,5.6428955e1 7.264411e1,5.671206e1 7.270209e1,5.6835808e1 7.2819115e1,5.7265923e1 7.2834625e1,5.7711403e1 7.270209e1,5.8253174e1 7.2448296e1,5.8710747e1 7.211245e1,5.9049614e1 7.170274e1,5.9294075e1 7.12128e1,5.943358e1 7.07034e1,5.9437813e1 7.0171036e1,5.928914e1 6.9704056e1,5.899344e1 " /><polyline points="8.369487e1,5.9255905e1 8.333183e1,5.902134e1 8.303127e1,5.8710747e1 8.2829384e1,5.8384117e1 8.2695526e1,5.80242e1 8.264494e1,5.7711403e1 8.264388e1,5.741043e1 8.2695526e1,5.7113907e1 8.283546e1,5.671206e1 8.299458e1,5.644725e1 8.319454e1,5.621173e1 8.343005e1,5.601178e1 8.369487e1,5.5852654e1 8.409675e1,5.5712715e1 8.439325e1,5.5661087e1 8.4694214e1,5.5662148e1 8.500697e1,5.5712715e1 8.5366905e1,5.5846573e1 8.5693565e1,5.6048485e1 8.600415e1,5.6349045e1 8.623871e1,5.671206e1 8.6402145e1,5.719873e1 8.642922e1,5.7711403e1 8.630801e1,5.823889e1 8.604289e1,5.8710747e1 8.5693565e1,5.9060074e1 8.522171e1,5.932521e1 8.4694214e1,5.944642e1 8.418155e1,5.9419342e1 8.369487e1,5.9255905e1 " /><polyline points="1.1067717e2,5.9343483e1 1.1019615e2,5.909008e1 1.0980667e2,5.8710747e1 1.09677826e2,5.852008e1 1.0950331e2,5.813031e1 1.0942034e2,5.7711403e1 1.0944742e2,5.719873e1 1.09610855e2,5.671206e1 1.09677826e2,5.658853e1 1.0986968e2,5.6320107e1 1.10105125e2,5.6088974e1 1.10377014e2,5.590207e1 1.1067717e2,5.5765076e1 1.10851395e2,5.5712715e1 1.1126275e2,5.5656265e1 1.1167651e2,5.569085e1 1.1178749e2,5.5712715e1 1.1226677e2,5.5912857e1 1.1267586e2,5.6232887e1 1.1301411e2,5.671206e1 1.13177536e2,5.719873e1 1.1320462e2,5.7711403e1 1.1308341e2,5.823889e1 1.1281829e2,5.8710747e1 1.1267586e2,5.887567e1 1.1221771e2,5.922325e1 1.1167651e2,5.94177e1 1.1117186e2,5.944771e1 1.1067717e2,5.9343483e1 " /><polyline points="1.3924023e2,4.2721237e1 1.3965814e2,4.2816017e1 1.4065749e2,4.2998886e1 1.4165683e2,4.3121544e1 1.4265617e2,4.3185272e1 1.4365552e2,4.3190742e1 1.4465486e2,4.3137993e1 1.456542e2,4.3026497e1 1.4665355e2,4.2855072e1 1.4725934e2,4.2721237e1 1.476529e2,4.262188e1 1.4865224e2,4.2324257e1 1.496516e2,4.1958603e1 1.5021236e2,4.1721893e1 1.5065094e2,4.152011e1 1.5165028e2,4.1002396e1 1.5213127e2,4.072255e1 1.523904e2,4.0563065e1 1.5239978e2,3.9723206e1 1.5239978e2,1.6738297e1 1.5239977e2,1.6397446e1 1.5221443e2,1.611142e1 1.5165028e2,1.5781174e1 1.5157448e2,1.5738953e1 1.5065094e2,1.5263458e1 1.496516e2,1.4824966e1 1.4943472e2,1.4739609e1 1.4865224e2,1.4459305e1 1.476529e2,1.4161682e1 1.4665355e2,1.3928497e1 1.456542e2,1.3757065e1 1.455321e2,1.3740265e1 1.4465486e2,1.3645569e1 1.4365552e2,1.3592819e1 1.4265617e2,1.3598297e1 1.4165683e2,1.3662018e1 1.4096745e2,1.3740265e1 1.4065749e2,1.3784683e1 1.3965814e2,1.3967545e1 1.386588e2,1.4212631e1 1.3765945e2,1.4522736e1 1.3706485e2,1.4739609e1 1.3666011e2,1.4901657e1 1.3566077e2,1.5354507e1 1.349251e2,1.5738953e1 1.3466142e2,1.58880005e1 1.341765e2,1.617833e1 1.3409981e2,1.6453064e1 1.340998e2,1.6738297e1 1.340998e2,3.9723206e1 1.3410922e2,4.0563072e1 1.3436833e2,4.072255e1 1.3466142e2,4.089557e1 1.3566077e2,4.142906e1 1.3628722e2,4.1721893e1 1.3666011e2,4.1881905e1 1.3765945e2,4.2260834e1 1.386588e2,4.257094e1 1.3924023e2,4.2721237e1 " /><polyline points="1.3765945e2,3.6528748e1 1.374873e2,3.637594e1 1.3748729e2,3.5725822e1 1.3748729e2,2.513205e1 1.3765945e2,2.5002853e1 1.386588e2,2.5010536e1 1.476529e2,2.5010536e1 1.4865224e2,2.5004898e1 1.4893271e2,2.5010536e1 1.4901228e2,2.5279541e1 1.4901228e2,3.5725822e1 1.490123e2,3.6209007e1 1.4898032e2,3.6535538e1 1.4865224e2,3.6531235e1 1.476529e2,3.653553e1 1.386588e2,3.653553e1 1.3765945e2,3.6528748e1 " /><polyline points="1.2530953e1,3.3727135e1 1.2741428e1,3.3784904e1 1.3740772e1,3.4020638e1 1.4740118e1,3.4194504e1 1.5739462e1,3.4308395e1 1.6738806e1,3.4363487e1 1.7738152e1,3.4360367e1 1.8737495e1,3.429899e1 1.973684e1,3.4178726e1 2.0736183e1,3.3998314e1 2.1735527e1,3.375579e1 2.1838625e1,3.3727135e1 2.273487e1,3.344837e1 2.3734215e1,3.3072304e1 2.451442e1,3.272779e1 2.4733559e1,3.262255e1 2.5732903e1,3.209246e1 2.6338554e1,3.1728447e1 2.673225e1,3.1473091e1 2.7731594e1,3.075222e1 2.776127e1,3.0729103e1 2.8730938e1,2.991262e1 2.8929367e1,2.972976e1 2.9730282e1,2.8928848e1 2.9913141e1,2.8730415e1 3.0729626e1,2.7760742e1 3.0752743e1,2.7731071e1 3.147361e1,2.6731728e1 3.172897e1,2.633802e1 3.209298e1,2.5732384e1 3.2623066e1,2.473304e1 3.2728313e1,2.4513878e1 3.307281e1,2.3733704e1 3.3448887e1,2.273436e1 3.3727657e1,2.1838058e1 3.37563e1,2.1735016e1 3.3998825e1,2.0735672e1 3.4179237e1,1.9736328e1 3.42995e1,1.8736984e1 3.4360878e1,1.773764e1 3.4364e1,1.6738297e1 3.4308903e1,1.5738953e1 3.4195015e1,1.4739609e1 3.402115e1,1.3740265e1 3.3785416e1,1.2740921e1 3.3727657e1,1.2530502e1 3.348513e1,1.1741577e1 3.311665e1,1.0742233e1 3.2728313e1,9.854675e0 3.2675106e1,9.742889e0 3.215403e1,8.743546e0 3.172897e1,8.030533e0 3.1544771e1,7.7442017e0 3.0835526e1,6.744858e0 3.0729626e1,6.6078186e0 3.0009718e1,5.745514e0 2.9730282e1,5.4397125e0 2.9043018e1,4.74617e0 2.8730938e1,4.455948e0 2.7897352e1,3.7468262e0 2.7731594e1,3.616333e0 2.673225e1,2.895462e0 2.6506945e1,2.747467e0 2.5732903e1,2.2760925e0 2.4737883e1,1.7481232e0 2.4733559e1,1.7460022e0 2.3734215e1,1.2962646e0 2.273487e1,9.201813e-1 2.22046e1,7.487793e-1 2.1735527e1,6.1276245e-1 2.0736183e1,3.7023926e-1 1.973684e1,1.898346e-1 1.8737495e1,6.956482e-2 1.7738152e1,8.19397e-3 1.6738806e1,5.065918e-3 1.5739462e1,6.0165405e-2 1.4740118e1,1.74057e-1 1.3740772e1,3.4791565e-1 1.2741428e1,5.836487e-1 1.2164977e1,7.487793e-1 1.17420845e1,8.8394165e-1 1.0742741e1,1.2524109e0 9.743395e0,1.6939697e0 9.63169e0,1.7481232e0 8.744051e0,2.215042e0 7.8626285e0,2.747467e0 7.744707e0,2.824295e0 6.745363e0,3.5335388e0 6.4722223e0,3.7468262e0 5.7460194e0,4.3593597e0 5.3265567e0,4.74617e0 4.7466736e0,5.32605e0 4.3598585e0,5.745514e0 3.74733e0,6.4717255e0 3.5340493e0,6.744858e0 2.824805e0,7.7442017e0 2.747986e0,7.8621063e0 2.2155461e0,8.743546e0 1.7486421e0,9.631165e0 1.6944709e0,9.742889e0 1.2529263e0,1.0742233e1 8.844457e-1,1.1741577e1 7.492973e-1,1.2164429e1 5.841619e-1,1.2740921e1 3.484298e-1,1.3740265e1 1.7456259e-1,1.4739609e1 6.0674742e-2,1.5738953e1 5.577341e-3,1.6738297e1 8.699074e-3,1.773764e1 7.007812e-2,1.8736984e1 1.9033961e-1,1.9736328e1 3.7075275e-1,2.0735672e1 6.132766e-1,2.1735016e1 7.492973e-1,2.2204132e1 9.206902e-1,2.273436e1 1.2967654e0,2.3733704e1 1.7465103e0,2.473304e1 1.7486421e0,2.4737396e1 2.2765985e0,2.5732384e1 2.747986e0,2.6506454e1 2.8959653e0,2.6731728e1 3.6168327e0,2.7731071e1 3.74733e0,2.7896843e1 4.456434e0,2.8730415e1 4.7466736e0,2.9042503e1 5.4402084e0,2.972976e1 5.7460194e0,3.0009209e1 6.608305e0,3.0729103e1 6.745363e0,3.0835014e1 7.744707e0,3.1544258e1 8.03102e0,3.1728447e1 8.744051e0,3.215352e1 9.743395e0,3.26746e1 9.855157e0,3.272779e1 1.0742741e1,3.3116142e1 1.17420845e1,3.348462e1 1.2530953e1,3.3727135e1 " /><polyline points="5.290095e1,3.3727135e1 5.371455e1,3.3934708e1 5.4713894e1,3.4132835e1 5.5713238e1,3.4270325e1 5.671258e1,3.4348625e1 5.7711926e1,3.436856e1 5.871127e1,3.4330322e1 5.9710613e1,3.423352e1 6.0709957e1,3.407715e1 6.17093e1,3.3859535e1 6.220863e1,3.3727135e1 6.2708645e1,3.357824e1 6.370799e1,3.322991e1 6.470733e1,3.2810074e1 6.4884415e1,3.272779e1 6.570667e1,3.231276e1 6.670602e1,3.1730042e1 6.670855e1,3.1728447e1 6.770537e1,3.105114e1 6.813127e1,3.0729103e1 6.870471e1,3.0261108e1 6.929937e1,2.972976e1 6.9704056e1,2.9338272e1 7.028314e1,2.8730415e1 7.07034e1,2.8249458e1 7.112274e1,2.7731071e1 7.170274e1,2.6939255e1 7.1843605e1,2.6731728e1 7.2462975e1,2.5732384e1 7.270209e1,2.530114e1 7.2993065e1,2.473304e1 7.344281e1,2.3733704e1 7.370143e1,2.3067307e1 7.3818886e1,2.273436e1 7.41263e1,2.1735016e1 7.436882e1,2.0735672e1 7.454923e1,1.9736328e1 7.4669495e1,1.8736984e1 7.4700775e1,1.8341507e1 7.473087e1,1.773764e1 7.473399e1,1.6738297e1 7.4700775e1,1.6027039e1 7.46789e1,1.5738953e1 7.456501e1,1.4739609e1 7.439114e1,1.3740265e1 7.415541e1,1.2740921e1 7.3855125e1,1.1741577e1 7.370143e1,1.1301254e1 7.348665e1,1.0742233e1 7.3045105e1,9.742889e0 7.270209e1,9.067413e0 7.2524025e1,8.743546e0 7.191477e1,7.7442017e0 7.170274e1,7.429306e0 7.120553e1,6.744858e0 7.07034e1,6.119095e0 7.0379715e1,5.745514e0 6.9704056e1,5.0302887e0 6.941302e1,4.74617e0 6.870471e1,4.1074524e0 6.826735e1,3.7468262e0 6.770537e1,3.3174133e0 6.6876945e1,2.747467e0 6.670602e1,2.6385193e0 6.570667e1,2.0558014e0 6.510788e1,1.7481232e0 6.470733e1,1.5584869e0 6.370799e1,1.1386414e0 6.2708645e1,7.903137e-1 6.25746e1,7.487793e-1 6.17093e1,5.0901794e-1 6.0709957e1,2.9141235e-1 5.9710613e1,1.3504028e-1 5.871127e1,3.8238525e-2 5.7711926e1,0.0e0 5.671258e1,1.9927979e-2 5.5713238e1,9.8236084e-2 5.4713894e1,2.3573303e-1 5.371455e1,4.3385315e-1 5.2715206e1,6.9480896e-1 5.2534977e1,7.487793e-1 5.1715862e1,1.021637e0 5.071652e1,1.4184265e0 5.0001694e1,1.7481232e0 4.9717175e1,1.890625e0 4.8717823e1,2.4454803e0 4.823263e1,2.747467e0 4.771848e1,3.0927582e0 4.6842228e1,3.7468262e0 4.6719135e1,3.8458862e0 4.571979e1,4.72406e0 4.569656e1,4.74617e0 4.4729862e1,5.745514e0 4.4720448e1,5.756073e0 4.3904053e1,6.744858e0 4.3721104e1,6.9885254e0 4.319481e1,7.7442017e0 4.272176e1,8.506409e0 4.258555e1,8.743546e0 4.2064476e1,9.742889e0 4.1722416e1,1.0501465e1 4.162293e1,1.0742233e1 4.1254448e1,1.1741577e1 4.0954166e1,1.2740921e1 4.0723072e1,1.3717667e1 4.0718433e1,1.3740265e1 4.0544563e1,1.4739609e1 4.0430676e1,1.5738953e1 4.037558e1,1.6738297e1 4.0378704e1,1.773764e1 4.0440083e1,1.8736984e1 4.0560345e1,1.9736328e1 4.0723072e1,2.0650894e1 4.0740757e1,2.0735672e1 4.098328e1,2.1735016e1 4.1290695e1,2.273436e1 4.1666767e1,2.3733704e1 4.1722416e1,2.3867096e1 4.2116512e1,2.473304e1 4.2646603e1,2.5732384e1 4.272176e1,2.5862144e1 4.326597e1,2.6731728e1 4.3721104e1,2.7380028e1 4.3986835e1,2.7731071e1 4.4720448e1,2.8612488e1 4.482644e1,2.8730415e1 4.571979e1,2.96445e1 4.581021e1,2.972976e1 4.6719135e1,3.0522675e1 4.697831e1,3.0729103e1 4.771848e1,3.127581e1 4.8401024e1,3.1728447e1 4.8717823e1,3.192308e1 4.9717175e1,3.2477936e1 5.0225163e1,3.272779e1 5.071652e1,3.2950134e1 5.1715862e1,3.3346924e1 5.2715206e1,3.367375e1 5.290095e1,3.3727135e1 " /><polyline points="9.327094e1,3.3727135e1 9.368832e1,3.3838905e1 9.468766e1,3.4061638e1 9.5687004e1,3.422296e1 9.668635e1,3.43246e1 9.768569e1,3.4367615e1 9.8685036e1,3.4352455e1 9.968438e1,3.427896e1 1.0068372e2,3.414637e1 1.0168307e2,3.3953285e1 1.0257862e2,3.3727135e1 1.0268241e2,3.369758e1 1.0368176e2,3.3376297e1 1.0468111e2,3.2985428e1 1.0525441e2,3.272779e1 1.0568045e2,3.251966e1 1.06679794e2,3.1971909e1 1.07078545e2,3.1728447e1 1.0767914e2,3.1332664e1 1.0850127e2,3.0729103e1 1.0867848e2,3.0588837e1 1.09669365e2,2.972976e1 1.09677826e2,2.9721832e1 1.1065314e2,2.8730415e1 1.1067717e2,2.8703865e1 1.1149274e2,2.7731071e1 1.1167651e2,2.7490303e1 1.122136e2,2.6731728e1 1.1267586e2,2.600074e1 1.1283297e2,2.5732384e1 1.1336306e2,2.473304e1 1.1367521e2,2.4058014e1 1.13812805e2,2.3733704e1 1.1418888e2,2.273436e1 1.1449629e2,2.1735016e1 1.1467455e2,2.1027374e1 1.14738815e2,2.0735672e1 1.1491923e2,1.9736328e1 1.1503949e2,1.8736984e1 1.1510087e2,1.773764e1 1.1510399e2,1.6738297e1 1.150489e2,1.5738953e1 1.14935005e2,1.4739609e1 1.1476114e2,1.3740265e1 1.1467455e2,1.3341187e1 1.14525406e2,1.2740921e1 1.1422512e2,1.1741577e1 1.1385664e2,1.0742233e1 1.1367521e2,1.0310547e1 1.134151e2,9.742889e0 1.1289402e2,8.743546e0 1.1267586e2,8.367828e0 1.1228477e2,7.7442017e0 1.1167651e2,6.8782654e0 1.1157552e2,6.744858e0 1.1074971e2,5.745514e0 1.1067717e2,5.6647034e0 1.0978301e2,4.74617e0 1.09677826e2,4.6467285e0 1.0867848e2,3.7797241e0 1.08637344e2,3.7468262e0 1.0767914e2,3.035904e0 1.0724694e2,2.747467e0 1.06679794e2,2.3966522e0 1.0568045e2,1.8489075e0 1.05477875e2,1.7481232e0 1.0468111e2,1.3831329e0 1.0368176e2,9.922638e-1 1.02944595e2,7.487793e-1 1.0268241e2,6.7097473e-1 1.0168307e2,4.152832e-1 1.0068372e2,2.2219849e-1 9.968438e1,8.959961e-2 9.8685036e1,1.6113281e-2 9.768569e1,9.460449e-4 9.668635e1,4.396057e-2 9.5687004e1,1.4559937e-1 9.468766e1,3.0691528e-1 9.368832e1,5.296478e-1 9.290497e1,7.487793e-1 9.268897e1,8.163147e-1 9.168963e1,1.1703186e0 9.0690285e1,1.5962677e0 9.037169e1,1.7481232e0 8.969094e1,2.1002502e0 8.86916e1,2.6903992e0 8.860262e1,2.747467e0 8.769225e1,3.377777e0 8.721222e1,3.7468262e0 8.669291e1,4.17778e0 8.606655e1,4.74617e0 8.5693565e1,5.1127625e0 8.509985e1,5.745514e0 8.4694214e1,6.217224e0 8.427404e1,6.744858e0 8.369487e1,7.5492554e0 8.35648e1,7.7442017e0 8.295554e1,8.743546e0 8.2695526e1,9.222244e0 8.243446e1,9.742889e0 8.199292e1,1.0742233e1 8.169618e1,1.153125e1 8.162444e1,1.1741577e1 8.132416e1,1.2740921e1 8.1088425e1,1.3740265e1 8.091456e1,1.4739609e1 8.080067e1,1.5738953e1 8.0745575e1,1.6738297e1 8.0748695e1,1.773764e1 8.0810074e1,1.8736984e1 8.0930336e1,1.9736328e1 8.111075e1,2.0735672e1 8.135327e1,2.1735016e1 8.166068e1,2.273436e1 8.169618e1,2.283731e1 8.203676e1,2.3733704e1 8.24865e1,2.473304e1 8.2695526e1,2.5146317e1 8.3016594e1,2.5732384e1 8.3635956e1,2.6731728e1 8.369487e1,2.6819313e1 8.435683e1,2.7731071e1 8.4694214e1,2.8151337e1 8.519643e1,2.8730415e1 8.5693565e1,2.9255798e1 8.61802e1,2.972976e1 8.669291e1,3.0190788e1 8.73483e1,3.0729103e1 8.769225e1,3.0990784e1 8.86916e1,3.1678162e1 8.877102e1,3.1728447e1 8.969094e1,3.226831e1 9.059515e1,3.272779e1 9.0690285e1,3.2772293e1 9.168963e1,3.3198242e1 9.268897e1,3.3552254e1 9.327094e1,3.3727135e1 " /><polyline points="1.17420845e1,2.2946777e1 1.1507785e1,2.2946777e1 1.1422289e1,2.2857346e1 1.1408924e1,2.273436e1 1.1422288e1,2.1735016e1 1.1422288e1,1.1741577e1 1.1422287e1,1.1421783e1 2.1735527e1,1.1421783e1 2.273487e1,1.1408417e1 2.2857864e1,1.1421768e1 2.2947285e1,1.1507278e1 2.2947287e1,1.1741577e1 2.2947287e1,2.273436e1 2.2947285e1,2.2946762e1 1.17420845e1,2.2946777e1 " /><polyline points="5.2715206e1,2.2946777e1 5.1963352e1,2.2946777e1 5.1798496e1,2.273436e1 5.179229e1,2.1735016e1 5.179229e1,1.2740921e1 5.178815e1,1.1741577e1 5.1867107e1,1.1421768e1 6.310169e1,1.1421783e1 6.3317287e1,1.1509262e1 6.333019e1,1.1741577e1 6.331729e1,1.2740921e1 6.331729e1,2.1735016e1 6.3303383e1,2.273436e1 6.3260635e1,2.2946777e1 5.2715206e1,2.2946777e1 " /><polyline points="9.268897e1,2.2946777e1 9.217079e1,2.2946793e1 9.2163635e1,2.273436e1 9.2162285e1,2.1735016e1 9.2162285e1,1.2740921e1 9.217393e1,1.1741577e1 9.216228e1,1.1536774e1 9.233216e1,1.1421768e1 1.0268241e2,1.1421783e1 1.0368176e2,1.1423752e1 1.0368728e2,1.1741577e1 1.0368728e2,2.273436e1 1.0368176e2,2.2927383e1 1.0268241e2,2.2946777e1 9.268897e1,2.2946777e1 " /><polyline points="2.747986e0,1.876677e1 2.7044008e0,1.8736984e1 2.4635828e0,1.8535812e1 2.2591918e0,1.829773e1 2.0968099e0,1.802922e1 1.9808657e0,1.773764e1 1.8992549e0,1.723993e1 1.9515622e0,1.6738297e1 2.1796043e0,1.6190002e1 2.5658796e0,1.5738953e1 2.747986e0,1.5601807e1 3.2254543e0,1.5373718e1 3.74733e0,1.5286285e1 4.264564e0,1.5344086e1 4.7466736e0,1.5540161e1 5.028299e0,1.5738953e1 5.4145722e0,1.6190002e1 5.6426153e0,1.6738297e1 5.694922e0,1.723993e1 5.6133113e0,1.773764e1 5.4973674e0,1.802922e1 5.334971e0,1.829773e1 5.1305914e0,1.8535828e1 4.889763e0,1.8736984e1 4.7466736e0,1.8828415e1 4.264564e0,1.9024475e1 3.74733e0,1.9082275e1 3.225454e0,1.8994843e1 2.747986e0,1.876677e1 " /><polyline points="2.9730282e1,1.888591e1 2.9479818e1,1.8736984e1 2.9238987e1,1.8535828e1 2.9034605e1,1.829773e1 2.887221e1,1.802922e1 2.8756264e1,1.773764e1 2.8730938e1,1.7629898e1 2.8673838e1,1.7184341e1 2.872696e1,1.6738297e1 2.8730938e1,1.672963e1 2.8957523e1,1.6185883e1 2.9341272e1,1.5738953e1 2.9730282e1,1.5482651e1 3.0216957e1,1.5319229e1 3.0729626e1,1.5292145e1 3.1257109e1,1.5413361e1 3.172897e1,1.5678482e1 3.1803703e1,1.5738953e1 3.218998e1,1.6190002e1 3.2418015e1,1.6738297e1 3.247032e1,1.723993e1 3.238871e1,1.773764e1 3.2133278e1,1.8265411e1 3.172897e1,1.8690079e1 3.1665182e1,1.8736984e1 3.122004e1,1.8969086e1 3.0729626e1,1.9076416e1 3.0216951e1,1.9049362e1 2.9730282e1,1.888591e1 " /><polyline points="4.3721104e1,1.90298e1 4.338394e1,1.891391e1 4.30744e1,1.8736984e1 4.272176e1,1.8415497e1 4.250147e1,1.8095627e1 4.235087e1,1.773764e1 4.2269253e1,1.723993e1 4.2321564e1,1.6738297e1 4.2475464e1,1.6322144e1 4.272176e1,1.5953064e1 4.2935875e1,1.5738953e1 4.3304943e1,1.54926605e1 4.3721104e1,1.533876e1 4.422274e1,1.5286438e1 4.4720448e1,1.5368057e1 4.507845e1,1.55186615e1 4.5398308e1,1.5738953e1 4.571979e1,1.6091583e1 4.5896698e1,1.6401123e1 4.601262e1,1.6738297e1 4.606493e1,1.723993e1 4.5983315e1,1.773764e1 4.571979e1,1.8276962e1 4.5509632e1,1.8526825e1 4.5259777e1,1.8736984e1 4.4720448e1,1.9000504e1 4.422274e1,1.9082123e1 4.3721104e1,1.90298e1 " /><polyline points="7.07034e1,1.906781e1 7.025635e1,1.895462e1 6.984979e1,1.8736984e1 6.9704056e1,1.8623428e1 6.9352234e1,1.8221573e1 6.912627e1,1.773764e1 6.9044655e1,1.723993e1 6.909696e1,1.6738297e1 6.932251e1,1.619403e1 6.9704056e1,1.5745117e1 6.9711266e1,1.5738953e1 7.017538e1,1.54474945e1 7.07034e1,1.5300735e1 7.12128e1,1.5304962e1 7.170274e1,1.5444489e1 7.2173706e1,1.5738953e1 7.2478035e1,1.6067612e1 7.270209e1,1.645546e1 7.278801e1,1.6738297e1 7.2840324e1,1.723993e1 7.2758705e1,1.773764e1 7.270209e1,1.7901016e1 7.242817e1,1.83665e1 7.203516e1,1.8736984e1 7.170274e1,1.8924072e1 7.12128e1,1.9063583e1 7.07034e1,1.906781e1 " /><polyline points="8.369487e1,1.888591e1 8.344441e1,1.8736984e1 8.3203575e1,1.8535828e1 8.299921e1,1.829773e1 8.28368e1,1.8029236e1 8.272086e1,1.773764e1 8.2695526e1,1.7629868e1 8.2638435e1,1.7184326e1 8.269156e1,1.6738297e1 8.2695526e1,1.672966e1 8.292213e1,1.6185898e1 8.330587e1,1.5738953e1 8.369487e1,1.5482651e1 8.418154e1,1.5319214e1 8.4694214e1,1.5292145e1 8.52217e1,1.5413376e1 8.5693565e1,1.5678482e1 8.5768295e1,1.5738953e1 8.6154564e1,1.6190002e1 8.638261e1,1.6738297e1 8.643491e1,1.723993e1 8.63533e1,1.773764e1 8.609786e1,1.8265411e1 8.5693565e1,1.8690079e1 8.5629776e1,1.8736984e1 8.518463e1,1.8969086e1 8.4694214e1,1.9076416e1 8.418154e1,1.9049362e1 8.369487e1,1.888591e1 " /><polyline points="1.1067717e2,1.897348e1 1.102198e2,1.8736984e1 1.09917564e2,1.8472351e1 1.09677826e2,1.8150024e1 1.0949626e2,1.773764e1 1.0941465e2,1.723993e1 1.0946696e2,1.6738297e1 1.09677826e2,1.6218521e1 1.0985962e2,1.5961975e1 1.1008126e2,1.5738953e1 1.103635e2,1.5539795e1 1.1067717e2,1.5395081e1 1.1117186e2,1.52908325e1 1.1167651e2,1.5320847e1 1.1213704e2,1.547403e1 1.125437e2,1.5738953e1 1.1267586e2,1.58628845e1 1.1297557e2,1.626828e1 1.13158005e2,1.6738297e1 1.1321032e2,1.723993e1 1.131287e2,1.773764e1 1.1294801e2,1.814862e1 1.1267586e2,1.8505676e1 1.12405174e2,1.8736984e1 1.1205723e2,1.893077e1 1.1167651e2,1.9047699e1 1.1117186e2,1.9077698e1 1.1067717e2,1.897348e1 " /></g></svg>