<?xml version="1.0" encoding="UTF-8"?>
<!DOCTYPE svg PUBLIC "-//W3C//DTD SVG 1.1//EN"
    "http://www.w3.org/Graphics/SVG/1.1/DTD/svg11.dtd">
<svg xmlns="http://www.w3.org/2000/svg" xmlns:xlink="http://www.w3.org/1999/xlink" version="1.1" width="34.37mm" height="34.37mm" viewBox="0.0 0.0 34.37 34.37"><g stroke="rgb(0,0,255)" stroke-width="1" fill="none"><polyline points="1.3106447e1,3.3878998e1 1.3257e1,3.3915062e1 1.4239e1,3.41156e1 1.5220999e1,3.42574e1 1.6203e1,3.434192e1 1.7185e1,3.437e1 1.8167e1,3.434192e1 1.9149e1,3.42574e1 2.0131e1,3.41156e1 2.1112999e1,3.3915062e1 2.1263552e1,3.3878998e1 2.2095e1,3.365364e1 2.3077e1,3.3328373e1 2.4059e1,3.293531e1 2.4146126e1,3.2897e1 2.5041e1,3.2469223e1 2.6022999e1,3.192318e1 2.6036629e1,3.1914999e1 2.7005e1,3.1287899e1 2.7496002e1,3.0932999e1 2.7987e1,3.0550665e1 2.8689495e1,2.9951e1 2.8968998e1,2.969346e1 2.9693459e1,2.8968998e1 2.9951e1,2.8689495e1 3.0550665e1,2.7987e1 3.0932999e1,2.7496002e1 3.1287899e1,2.7005e1 3.1915e1,2.6036623e1 3.192318e1,2.6022999e1 3.2469223e1,2.5041e1 3.2897e1,2.4146126e1 3.293531e1,2.4058998e1 3.3328373e1,2.3077e1 3.365364e1,2.2095e1 3.3878998e1,2.126356e1 3.3915062e1,2.1112999e1 3.41156e1,2.0130999e1 3.42574e1,1.9149e1 3.434192e1,1.8167e1 3.437e1,1.7185e1 3.434192e1,1.6203e1 3.42574e1,1.5220999e1 3.41156e1,1.4238998e1 3.3915062e1,1.3257e1 3.3878998e1,1.310644e1 3.365364e1,1.2275e1 3.3328373e1,1.1292999e1 3.293531e1,1.0310999e1 3.2897e1,1.0223873e1 3.2469223e1,9.328999e0 3.192318e1,8.347e0 3.1915e1,8.333376e0 3.1287899e1,7.365e0 3.0932999e1,6.8739977e0 3.0550665e1,6.3829994e0 2.9951e1,5.680503e0 2.969346e1,5.401001e0 2.8968998e1,4.6765385e0 2.8689495e1,4.4189987e0 2.7987e1,3.819334e0 2.7496002e1,3.4370003e0 2.7005e1,3.082099e0 2.6036623e1,2.454998e0 2.6022999e1,2.4468184e0 2.5041e1,1.9007769e0 2.4146126e1,1.4729996e0 2.4059e1,1.4346886e0 2.3077e1,1.041626e0 2.2095e1,7.163601e-1 2.126356e1,4.9100113e-1 2.1112999e1,4.5493507e-1 2.0131e1,2.5439835e-1 1.9149e1,1.1259842e-1 1.8167e1,2.8079987e-2 1.7185e1,0.0e0 1.6203e1,2.8079987e-2 1.5220999e1,1.1259842e-1 1.4239e1,2.5439835e-1 1.3257e1,4.5493507e-1 1.310644e1,4.9100113e-1 1.2275e1,7.163601e-1 1.1292999e1,1.041626e0 1.0311e1,1.4346867e0 1.0223873e1,1.4729996e0 9.3289995e0,1.9007759e0 8.347e0,2.4468184e0 8.333376e0,2.454998e0 7.365e0,3.082099e0 6.8739977e0,3.4370003e0 6.3829994e0,3.819334e0 5.680504e0,4.4189987e0 5.401e0,4.6765394e0 4.6765385e0,5.401001e0 4.4189997e0,5.680503e0 3.819334e0,6.3829994e0 3.4370003e0,6.8739977e0 3.082099e0,7.365e0 2.455e0,8.333371e0 2.4468184e0,8.347e0 1.9007769e0,9.328999e0 1.4729996e0,1.0223873e1 1.4346886e0,1.0310999e1 1.041626e0,1.1292999e1 7.163601e-1,1.2275e1 4.9099922e-1,1.3106447e1 4.5493507e-1,1.3257e1 2.5439835e-1,1.4238998e1 1.1259842e-1,1.5220999e1 2.8079987e-2,1.6203e1 0.0e0,1.7185e1 2.8079987e-2,1.8167e1 1.1259842e-1,1.9149e1 2.5439835e-1,2.0130999e1 4.5493507e-1,2.1112999e1 4.9099922e-1,2.1263552e1 7.163601e-1,2.2095e1 1.041626e0,2.3077e1 1.4346867e0,2.4058998e1 1.4729996e0,2.4146126e1 1.9007759e0,2.5041e1 2.4468184e0,2.6022999e1 2.455e0,2.6036629e1 3.082099e0,2.7005e1 3.4370003e0,2.7496002e1 3.819334e0,2.7987e1 4.4189997e0,2.8689497e1 4.6765404e0,2.8968998e1 5.401e0,2.9693459e1 5.680502e0,2.9951e1 6.3829994e0,3.0550665e1 6.8739977e0,3.0932999e1 7.365e0,3.1287899e1 8.333371e0,3.1914999e1 8.347e0,3.192318e1 9.3289995e0,3.2469223e1 1.0223873e1,3.2897e1 1.0311e1,3.293531e1 1.1292999e1,3.3328373e1 1.2275e1,3.365364e1 1.3106447e1,3.3878998e1 " /><polyline points="1.2275e1,2.2947498e1 1.14225025e1,2.2947496e1 1.14225e1,2.2095e1 1.14225e1,1.2275e1 1.1422499e1,1.1422499e1 2.29475e1,1.1422499e1 2.2947498e1,1.2275e1 2.2947498e1,2.2095e1 2.29475e1,2.29475e1 1.2275e1,2.2947498e1 " /><polyline points="2.455e0,1.8527794e1 2.1723232e0,1.8167e1 1.9683485e0,1.769471e1 1.8986502e0,1.7185e1 1.9683475e0,1.6675287e1 2.1723251e0,1.6203e1 2.455e0,1.5842207e1 2.9069824e0,1.5508038e1 3.4370003e0,1.532085e1 3.9326267e0,1.529118e1 4.4189997e0,1.5391022e1 4.710355e0,1.5520308e1 4.975976e0,1.5696512e1 5.208376e0,1.5914671e1 5.401e0,1.6168638e1 5.4222755e0,1.6203e1 5.626251e0,1.667529e1 5.6959505e0,1.7185e1 5.626253e0,1.7694712e1 5.4222765e0,1.8167e1 5.401e0,1.8201363e1 5.208376e0,1.845533e1 4.975976e0,1.8673489e1 4.710355e0,1.8849693e1 4.4189997e0,1.897898e1 3.9326267e0,1.9078821e1 3.4370003e0,1.904915e1 2.9069824e0,1.8861965e1 2.455e0,1.8527794e1 " /><polyline points="2.8968998e1,1.820136e1 2.8947723e1,1.8167e1 2.8743746e1,1.7694712e1 2.867405e1,1.7185e1 2.8743746e1,1.667529e1 2.8947721e1,1.6203e1 2.8968998e1,1.6168636e1 2.9161621e1,1.5914668e1 2.9394024e1,1.569651e1 2.9659645e1,1.5520304e1 2.9951e1,1.5391018e1 3.0437372e1,1.5291176e1 3.0932999e1,1.5320847e1 3.1463017e1,1.5508035e1 3.1915e1,1.5842205e1 3.2197678e1,1.6203e1 3.240165e1,1.667529e1 3.2471348e1,1.7185e1 3.240165e1,1.7694712e1 3.2197674e1,1.8167e1 3.1915e1,1.8527792e1 3.1463017e1,1.8861961e1 3.0932999e1,1.9049149e1 3.0437372e1,1.9078821e1 2.9951e1,1.897898e1 2.9659645e1,1.8849693e1 2.9394024e1,1.8673487e1 2.9161621e1,1.8455328e1 2.8968998e1,1.820136e1 " /></g></svg>