<?xml version="1.0" encoding="UTF-8"?>
<!DOCTYPE svg PUBLIC "-//W3C//DTD SVG 1.1//EN"
    "http://www.w3.org/Graphics/SVG/1.1/DTD/svg11.dtd">
<svg xmlns="http://www.w3.org/2000/svg" xmlns:xlink="http://www.w3.org/1999/xlink" version="1.1" width="28.575mm" height="46.01544mm" viewBox="0.0 0.0 28.575 46.01544"><g stroke="rgb(0,0,255)" stroke-width="1" fill="none"><polyline points="1.2660578e1,4.5708664e1 1.2817927e1,4.5740368e1 1.3797642e1,4.5900997e1 1.4777355e1,4.599951e1 1.5757071e1,4.601544e1 1.5875001e1,4.6003277e1 1.5875e1,4.5708664e1 1.5875e1,2.3018755e1 1.5875001e1,2.2477283e1 1.5933506e1,2.2188435e1 2.2088089e1,1.8341824e1 2.2344631e1,1.8256252e1 2.7513641e1,1.8256252e1 2.8493355e1,1.8231903e1 2.8575e1,1.8273571e1 2.8574999e1,1.8086164e1 2.8574999e1,9.207504e0 2.8574997e1,8.736324e0 2.8493355e1,8.597752e0 2.829667e1,8.220985e0 2.385896e1,8.5170746e-2 2.37406e1,0.0e0 1.5984038e1,7.6293945e-6 1.5757071e1,1.1796188e-1 1.5546162e1,3.2884216e-1 7.1730304e0,8.701973e0 6.939642e0,8.731255e0 1.061357e0,8.731255e0 8.1642866e-2,8.752514e0 0.0e0,8.847462e0 0.0e0,2.992438e1 1.7650545e-2,3.0910896e1 8.1642866e-2,3.1770454e1 9.508471e-2,3.1897415e1 2.3500499e-1,3.2883934e1 4.3910885e-1,3.3870453e1 7.0998716e-1,3.4856968e1 1.0513008e0,3.5843483e1 1.061357e0,3.586966e1 1.4680552e0,3.683e1 1.9670305e0,3.781652e1 2.0410712e0,3.7949547e1 2.5574648e0,3.880304e1 3.0207856e0,3.9478336e1 3.2521856e0,3.9789555e1 4.0004997e0,4.069872e1 4.069589e0,4.0776073e1 4.980214e0,4.17089e1 5.037402e0,4.1762592e1 5.9599276e0,4.2560364e1 6.2006555e0,4.274911e1 6.939642e0,4.328405e1 7.6417823e0,4.3735626e1 7.9193563e0,4.3900166e1 8.899071e0,4.4422657e1 9.547881e0,4.4722145e1 9.878785e0,4.4861515e1 1.0858499e1,4.5224052e1 1.1838213e1,4.551568e1 1.2660578e1,4.5708664e1 " /><polyline points="1.4777355e1,1.0384411e1 1.4534089e1,1.0194023e1 1.416851e1,9.743996e0 1.3948623e1,9.207504e0 1.3890702e1,8.713696e0 1.3957353e1,8.220985e0 1.4190906e1,7.681698e0 1.4572173e1,7.2344666e0 1.4777355e1,7.0780983e0 1.5245514e1,6.849369e0 1.5757071e1,6.7503853e0 1.625929e1,6.7844467e0 1.6736784e1,6.943779e0 1.7177828e1,7.2344666e0 1.7497372e1,7.5886e0 1.77165e1,8.0122795e0 1.7792646e1,8.220985e0 1.7859295e1,8.713692e0 1.7801378e1,9.207504e0 1.77165e1,9.488781e0 1.750223e1,9.866974e0 1.7215912e1,1.0194023e1 1.6736784e1,1.051873e1 1.625929e1,1.0678062e1 1.5757071e1,1.0712124e1 1.5245514e1,1.061314e1 1.4777355e1,1.0384411e1 " /></g></svg>