<?xml version="1.0" encoding="UTF-8"?>
<!DOCTYPE svg PUBLIC "-//W3C//DTD SVG 1.1//EN"
    "http://www.w3.org/Graphics/SVG/1.1/DTD/svg11.dtd">
<svg xmlns="http://www.w3.org/2000/svg" xmlns:xlink="http://www.w3.org/1999/xlink" version="1.1" width="130mm" height="117mm" viewBox="0 -4 130 121"><path d="M 0,0 L 0.0,15.049999999999997 q 0.0,4.0 4.0,4.0 l 5.0,0.0 Q 39.0,19.049999999999997 30.228848858317896,47.73914267889106 a 200.0,200.0 0.0 0,0 -19.03505433698306,62.26085732110894 q 0.0,4.0 4.0,4.0 a 80.0,90.0 0.0 0,0 36.0,0.0 q 4.0,0.0 4.0,-4.0 a 200.0,200.0 0.0 0,1 19.03505433698306,-58.26085732110894 q 4.0,-4.0 0.0,-8.0 a 20.0,20.0 0.0 0,1 0.0,-24.68914267889106 L 126.0,19.049999999999997 q 4.0,0.0 4.0,-4.0 L 130.0,0.0 l -20.0152,0.0 l 0.0,-3.0 L 20.0152,-3.0 l 0.0,3.0 Z" stroke="black" fill="white" /><circle r="3.3782" cx="10.0076" cy="9.524999999999999" stroke="black" fill="white" /><circle r="3.3782" cx="119.9924" cy="9.524999999999999" stroke="black" fill="white" /><circle r="1.8287999999999998" cx="86" cy="6.746874999999999" stroke="black" fill="white" /><circle r="1.8287999999999998" cx="16.680194521334837" cy="110.0" stroke="black" fill="white" /><circle r="1.8287999999999998" cx="50.462274521334834" cy="110.0" stroke="black" fill="white" /></svg>
