<?xml version="1.0" encoding="UTF-8"?>
<!DOCTYPE svg PUBLIC "-//W3C//DTD SVG 1.1//EN"
    "http://www.w3.org/Graphics/SVG/1.1/DTD/svg11.dtd">
<svg xmlns="http://www.w3.org/2000/svg" xmlns:xlink="http://www.w3.org/1999/xlink" version="1.1" width="206.35095mm" height="50.8mm" viewBox="0 0 206.35095 50.8"><path d="M 0,0 l 206.35095,0.0 l 0.0,50.8 l -206.35095,0.0 Z" stroke="black" fill="white" /><path d="M 9.39865,5.6959496 a 1.8986499,1.8986499 0.0 1,0 0.0,1.0e-3 Z" stroke="black" fill="white" /><path d="M 105.27865,5.6959496 a 1.8986499,1.8986499 0.0 1,0 0.0,1.0e-3 Z" stroke="black" fill="white" /><path d="M 9.39865,45.10405 a 1.8986499,1.8986499 0.0 1,0 0.0,1.0e-3 Z" stroke="black" fill="white" /><path d="M 105.27865,45.10405 a 1.8986499,1.8986499 0.0 1,0 0.0,1.0e-3 Z" stroke="black" fill="white" /><path d="M 202.55365,5.6959496 a 1.8986499,1.8986499 0.0 1,0 0.0,1.0e-3 Z" stroke="black" fill="white" /><path d="M 202.55365,45.10405 a 1.8986499,1.8986499 0.0 1,0 0.0,1.0e-3 Z" stroke="black" fill="white" /></svg>
